<?xml version="1.0" encoding="UTF-8"?>
<svg width="30px" height="30px" viewBox="0 0 30 30" version="1.1" xmlns="http://www.w3.org/2000/svg" xmlns:xlink="http://www.w3.org/1999/xlink">
    <title>Shape</title>
    <g id="Coaching" stroke="none" stroke-width="1" fill="none" fill-rule="evenodd">
        <g id="Home" transform="translate(-29.000000, -93.000000)" fill="#FFFFFF" fill-rule="nonzero">
            <g id="Card-1-Copy-7" transform="translate(16.000000, 80.000000)">
                <g id="857492" transform="translate(8.000000, 8.000000)">
                    <path d="M34.9669928,21.6254576 C34.6241257,16.5868022 30.5249083,12.6661034 25.5592111,12.627391 C23.9018746,6.97690108 18.0546978,3.76268834 12.4992017,5.44836379 C6.94364312,7.13403924 3.78352896,13.0811973 5.440803,18.7316872 C6.31340775,21.7066965 8.41592145,24.148059 11.2005443,25.4196576 C10.2156922,25.9555293 9.30077592,26.6148485 8.47710753,27.3821048 L7.05064064,28.7119309 C6.43990481,29.2812389 6.39853077,30.2462528 6.95826778,30.8674317 C7.02082883,30.9368471 7.08957724,31.0002872 7.16363802,31.0567984 L8.7716007,32.2833914 C11.086172,34.0415335 13.8961693,34.9941518 16.7849147,35 L18.2158815,35 C21.1043145,34.9938975 23.9139368,34.0412792 26.2281956,32.2833914 L26.7941824,31.8516429 C31.4987607,31.2036387 35.0061168,27.1152496 35,22.2865567 C35,22.1533198 34.9952421,21.7115276 34.9669928,21.6254576 Z M32.3529412,17.3529412 C33.185089,18.5825597 33.8318591,20.0511771 33.9623616,21.5699967 L33.7278058,21.7647059 L31.4705882,20.1323629 L32.2038392,17.3529412 L32.3529412,17.3529412 Z M29.0330572,14.7058824 C29.9407111,15.1324951 30.766702,15.7291232 31.4705882,16.4664863 L31.4566677,16.4664863 C31.2423397,16.4666752 31.0541127,16.6159109 30.9953705,16.8322083 L30.0958169,20.1357964 L28.5535193,20.8823529 L26.1764706,19.2194764 L26.1764706,17.232689 L28.8520905,15.2680666 C29.0223168,15.1418144 29.0954596,14.9146865 29.0330572,14.7058824 Z M17.796816,16.2761049 C17.7485834,16.3158289 17.7090641,16.3652431 17.6807879,16.4211741 C17.6755599,16.437381 17.6711751,16.4538713 17.667746,16.4705882 L16.4705882,15.2637942 L17.6807879,13.9801976 C18.0608023,14.328477 18.4899091,14.7168861 18.920742,14.9986376 C18.4233504,15.447332 18.1773363,15.7241621 17.796816,16.2761049 Z M16.9378718,17.7651717 C16.481787,18.4513107 15.9333114,19.9286983 15.6214566,20.8823529 C15.1007628,20.0001749 14.3048128,18.4438635 13.8235294,18.1080507 L15.6214566,16.4705882 L16.9378718,17.7651717 Z M17.7847309,18.2352941 L18.2264595,18.4438635 L18.920742,20.0608863 L16.9117647,22.2865567 L16.1801422,21.8647716 C16.574429,20.6319479 17.0750105,19.5588235 17.7847309,18.2352941 Z M16.7075714,23.4081765 C16.9054858,23.510967 17.144461,23.4705062 17.3008005,23.307593 L19.5187166,21.0173721 L21.647158,21.8924399 L22.6121025,25.2160049 C22.6214199,25.2430902 22.6331791,25.2692393 22.6470588,25.2941176 C20.8553554,24.4414315 18.9080194,24.0007098 16.9378718,24.0020473 C16.8165528,24.0020473 16.695748,24.0073975 16.574429,24.0106076 C16.5322758,23.7682441 16.493207,23.5264157 16.4705882,23.2845872 L16.7075714,23.4081765 Z M21.873822,20.8823529 L19.8333499,20.0608863 L18.920742,17.7651717 C18.8756076,17.6514465 18.7905466,17.5583702 18.6816784,17.5036598 L18.2352941,17.2780809 C19.0837343,16.1669675 20.1913873,15.2834916 21.4601726,14.7058824 C21.3956949,14.9126838 21.4712702,15.1377637 21.647158,15.2628427 L24.4117647,17.2117048 L24.4117647,19.1800306 L21.873822,20.8823529 Z M25.3012496,20 L27.8983846,21.5857286 C27.9027735,21.5962567 27.9016763,21.6072861 27.9071625,21.6178142 C27.9172432,21.635173 27.9286269,21.6519677 27.9411765,21.6679479 L26.9187513,24.1569225 L23.5294118,24.1569225 L22.6470588,21.6178142 L25.3012496,20 Z M27.7981814,14.1768987 L27.7981814,14.1796682 L27.9411765,14.6067232 L25.2941176,16.4705882 L22.6470588,14.6039537 L22.7900539,14.1768987 C24.42666,13.7057396 26.1615753,13.7057396 27.7981814,14.1768987 Z M24.4117647,12.9147325 C22.7261723,13.0900097 21.1983116,13.6720555 19.8333499,14.4051017 C19.2963991,14.0821074 18.8140928,13.6720555 18.3484238,13.2518926 L22.3910264,9.41176471 C23.3003971,10.4248565 23.9887495,11.6180549 24.4117647,12.9147325 Z M21.3235294,8.64645524 L17.9295651,12.0588235 C16.588923,10.5638877 15.729153,9.47033016 15.5882353,7.46212207 L15.5882353,6.48113415 C17.8650542,6.43631286 19.6323388,7.11270998 21.3235294,8.64645524 Z M14.1160875,6.48113415 L14.1160875,8.00174664 C14.4454239,10.1090957 15.1200994,11.1506853 16.7075714,12.9147325 L15.0868111,14.6067232 L9.27695273,8.76904552 C10.7189091,7.45196376 12.1884116,6.72086267 14.1160875,6.48113415 Z M8.42237111,9.57166824 L14.7058824,15.7672094 L13.1012819,17.3529412 C11.3356893,15.7653944 10.4273664,14.9421442 7.81830443,14.6067232 L6.49690675,14.6039537 C6.73693816,12.6753644 7.16363802,11.1030217 8.42237111,9.57166824 Z M6.49690675,15.7672094 L7.65898947,15.7672094 C9.31337655,15.7672094 10.5630317,16.7281384 12.0588235,18.258966 L8.7716007,21.8924399 C7.23910267,19.9593254 6.45193126,18.3691564 6.49690675,15.7672094 Z M9.80459081,22.9165715 L13.3271758,19.1176471 C14.5689634,20.5967289 15.1172469,22.0299812 15.3475936,24.0020473 C14.3194066,24.1630915 13.1012819,24.4117647 12.4992017,24.6118962 C11.3238555,24.1842696 10.7277845,23.8040206 9.80459081,22.9165715 Z M26.9245045,30.4519577 C26.9031883,30.4742613 26.8797661,30.4946041 26.8545569,30.5128024 L25.2100221,31.6956267 C23.0238399,33.2629425 20.3697874,34.112255 17.6413837,34.1176471 L16.1801422,34.1176471 C13.6045588,33.7891117 11.5735281,32.7639694 9.80459081,31.5707132 L8.42237111,30.5128024 C7.98509878,30.13746 7.84857233,29.4697357 8.31106063,28.9228124 L9.67919712,27.7328362 C10.3597322,27.2140791 11.9304888,26.2509655 11.9456735,26.2398981 C16.4664849,24.4472183 21.8346028,25.301243 25.4372242,28.4775406 L26.8933599,29.7593829 C27.1011605,29.9423457 27.1151373,30.2523898 26.9245045,30.4519577 Z M26.2035184,27.1288032 C25.3981262,26.4045132 24.4989729,25.7876458 23.5294118,25.2941176 L26.9187513,25.2941176 L27.9411765,26.2981744 L27.1037173,27.9411765 L26.2035184,27.1288032 Z M28.0248942,30.5882353 C28.2377425,30.1523848 28.2062825,29.6438507 27.9411765,29.2348179 L29.0837388,27.0588235 L32.1186369,27.0588235 L32.3529412,27.50495 C31.2802095,28.9343718 29.7679598,30.0117171 28.0248942,30.5882353 Z M21.0828877,27.9411765 C21.3708255,27.9411765 21.6042781,28.1387132 21.6042781,28.3823529 L21.6042781,28.3823529 L21.6042781,28.8235294 L22.1256684,28.8235294 C22.4136063,28.8235294 22.6470588,29.0210662 22.6470588,29.2647059 C22.6470588,29.5083456 22.4136063,29.7058824 22.1256684,29.7058824 L22.1256684,29.7058824 L21.6042781,29.7058824 L21.6042781,30.1470588 C21.6042781,30.3906985 21.3708255,30.5882353 21.0828877,30.5882353 C20.7949499,30.5882353 20.5614973,30.3906985 20.5614973,30.1470588 L20.5614973,30.1470588 L20.5614973,29.7058824 L19.5187166,29.7058824 L19.5187166,30.1470588 C19.5187166,30.3906985 19.285264,30.5882353 18.9973262,30.5882353 C18.7093884,30.5882353 18.4759358,30.3906985 18.4759358,30.1470588 L18.4759358,30.1470588 L18.4759358,29.7058824 L17.4331551,29.7058824 L17.4331551,30.1470588 C17.4331551,30.3906985 17.1997025,30.5882353 16.9117647,30.5882353 C16.6238269,30.5882353 16.3903743,30.3906985 16.3903743,30.1470588 L16.3903743,30.1470588 L16.3903743,29.7058824 L15.3475936,29.7058824 L15.3475936,30.1470588 C15.3475936,30.3906985 15.114141,30.5882353 14.8262032,30.5882353 C14.5382654,30.5882353 14.3048128,30.3906985 14.3048128,30.1470588 L14.3048128,30.1470588 L14.3048128,29.7058824 L13.2620321,29.7058824 L13.2620321,30.1470588 C13.2620321,30.3906985 13.0285795,30.5882353 12.7406417,30.5882353 C12.4527039,30.5882353 12.2192513,30.3906985 12.2192513,30.1470588 L12.2192513,30.1470588 L12.2192513,29.7058824 L11.697861,29.7058824 C11.4099231,29.7058824 11.1764706,29.5083456 11.1764706,29.2647059 C11.1764706,29.0210662 11.4099231,28.8235294 11.697861,28.8235294 L11.697861,28.8235294 L12.2192513,28.8235294 L12.2192513,28.3823529 C12.2192513,28.1387132 12.4527039,27.9411765 12.7406417,27.9411765 C13.0285795,27.9411765 13.2620321,28.1387132 13.2620321,28.3823529 L13.2620321,28.3823529 L13.2620321,28.8235294 L14.3048128,28.8235294 L14.3048128,28.3823529 C14.3048128,28.1387132 14.5382654,27.9411765 14.8262032,27.9411765 C15.114141,27.9411765 15.3475936,28.1387132 15.3475936,28.3823529 L15.3475936,28.3823529 L15.3475936,28.8235294 L16.3903743,28.8235294 L16.3903743,28.3823529 C16.3903743,28.1387132 16.6238269,27.9411765 16.9117647,27.9411765 C17.1997025,27.9411765 17.4331551,28.1387132 17.4331551,28.3823529 L17.4331551,28.3823529 L17.4331551,28.8235294 L18.4759358,28.8235294 L18.4759358,28.3823529 C18.4759358,28.1387132 18.7093884,27.9411765 18.9973262,27.9411765 C19.285264,27.9411765 19.5187166,28.1387132 19.5187166,28.3823529 L19.5187166,28.3823529 L19.5187166,28.8235294 L20.5614973,28.8235294 L20.5614973,28.3823529 C20.5614973,28.1387132 20.7949499,27.9411765 21.0828877,27.9411765 Z M30.4378368,20.8823529 L33.3234922,22.7007887 C33.4270851,22.7660204 33.6400416,22.7481104 33.9623616,22.6470588 C33.9166704,23.8937521 33.7314547,25.0705102 33.121173,26.1764706 L33.0393067,26.0138022 C32.9505314,25.8458963 32.7686136,25.7401618 32.5700097,25.7412093 L29.1357982,25.7412093 L27.9411765,24.6118962 L28.8604772,21.5699967 L30.4378368,20.8823529 Z" id="Shape"></path>
                </g>
            </g>
        </g>
    </g>
</svg>