<?xml version="1.0" encoding="UTF-8"?>
<svg width="33px" height="28px" viewBox="0 0 33 28" version="1.1" xmlns="http://www.w3.org/2000/svg" xmlns:xlink="http://www.w3.org/1999/xlink">
    <title>Shape</title>
    <g id="Coaching" stroke="none" stroke-width="1" fill="none" fill-rule="evenodd">
        <g id="Home" transform="translate(-103.000000, -94.000000)" fill="#424242" fill-rule="nonzero">
            <g id="Card-1" transform="translate(88.000000, 80.000000)">
                <g id="001-dancer" transform="translate(11.000000, 8.000000)">
                    <g id="005-martial-arts" transform="translate(4.000000, 6.000000)">
                        <path d="M32.363325,25.1028385 C32.1834798,24.5905063 31.816494,24.1794766 31.329992,23.9454065 L28.7303243,22.6946022 L28.811334,22.4886716 C28.9336414,22.1780491 28.7976949,21.8248974 28.4996022,21.6786355 L19.6391418,17.3566323 C19.3243016,17.2020565 18.9451993,17.3342485 18.7920612,17.6514583 C18.6389232,17.9687321 18.7697947,18.3509827 19.084508,18.5054306 L27.4164074,22.568166 L26.2265107,25.3239261 L13.9360711,19.5824288 C13.8525874,19.543481 13.7616815,19.5232077 13.6696337,19.5232077 L7.63755464,19.5232077 C7.57709873,19.5232077 7.51886313,19.5322891 7.46348221,19.5482136 L6.9750771,17.8002341 C6.88023808,17.4607045 6.53050729,17.2625123 6.19333712,17.3585067 C5.85648413,17.4541173 5.66027203,17.8070772 5.75517449,18.1466067 L6.80068749,21.8884033 L3.54158728,21.8884033 L2.66240733,15.7978473 C2.5878683,15.2816779 2.73935699,14.759305 3.07785935,14.3647753 C3.41636171,13.9703095 3.90730432,13.7439778 4.42476379,13.7439778 C4.70230274,13.7439778 4.97996856,13.8106814 5.22769189,13.9368618 L9.63970475,16.1836793 C9.643511,16.1855979 9.64680975,16.186813 9.65042568,16.1884758 C9.73429002,16.2292142 9.82760655,16.2523015 9.92549057,16.2523015 L14.5440558,16.2517898 L19.1100314,18.4922119 C19.1993514,18.5360841 19.2938098,18.5568051 19.3868726,18.5568051 C19.6217181,18.5568051 19.8474286,18.424613 19.9570486,18.1973859 C20.1101867,17.8801121 19.9793151,17.4978616 19.6646018,17.3434136 L15.6590329,15.377928 L17.1140348,13.4311808 L24.2314656,13.4311808 C24.6483132,13.4311808 25.055328,13.3131225 25.4056932,13.0915872 L29.0721889,10.7987232 C29.2215841,10.705287 29.3242894,10.553717 29.3585456,10.3812981 C29.6494699,10.2978387 29.9239638,10.1412803 30.1525925,9.91085555 L30.6529873,9.40638965 C31.3695135,8.68403387 31.3695135,7.50863088 30.6529873,6.7862751 L29.8126311,5.93908192 C29.0961048,5.2167901 27.930124,5.21666219 27.2135978,5.93908192 L26.713203,6.44354783 C26.4834324,6.67525168 26.3276934,6.9537056 26.2452882,7.2487235 C26.2091288,7.25953165 26.1734135,7.27334563 26.1388401,7.29093287 L22.7412559,9.02401115 L17.0117101,8.21602152 C17.4273525,7.8154802 17.7373714,7.31299685 17.9104923,6.74355411 L18.0582381,6.25776265 C18.6086851,4.44774821 17.5957155,2.52383242 15.8003716,1.96897109 C14.9306438,1.70017416 14.0090242,1.78894174 13.205652,2.21890171 C12.4020895,2.64879773 11.8128188,3.36846746 11.5461911,4.24520719 L11.3984453,4.73099865 C11.1347991,5.59795349 11.2306532,6.49068162 11.5985271,7.2469328 L6.75704251,6.52387353 L8.1624363,5.32800539 C8.27269063,5.23418548 8.34621466,5.10583063 8.37419059,4.96519669 C8.64240422,4.87802795 8.89469506,4.72786492 9.10727403,4.51349249 L9.60766882,4.00902659 C10.3241951,3.28667082 10.3241951,2.11126782 9.60766882,1.38884809 L8.76731261,0.541718868 C8.05078635,-0.180636908 6.88486902,-0.180509001 6.16827931,0.541718868 L5.66788452,1.04618477 C5.43855805,1.27737699 5.28300937,1.55512742 5.20054065,1.84937788 C5.08521133,1.86888373 4.97400544,1.92062218 4.88113297,2.00491301 L1.3881388,5.17982493 C0.766832182,5.74453511 0.471911367,6.57932129 0.599166939,7.41282841 C0.726485948,8.24633552 1.25675979,8.95295871 2.01775572,9.30316856 L8.47124992,12.2732371 L8.98661596,14.4195835 L5.79907322,12.7964414 C5.37505714,12.5805341 4.89984703,12.466313 4.42470035,12.466313 C3.53898634,12.466313 2.698757,12.8536799 2.11931912,13.5289019 C1.53988124,14.2041878 1.28073916,15.098259 1.40824848,15.9818417 L2.36634464,22.6192649 C2.38493182,22.7479395 2.44113742,22.8625443 2.52214708,22.9534863 C1.07380612,23.3275509 0,24.654332 0,26.229381 C0,26.582149 0.28375582,26.8682134 0.633676924,26.8682134 L7.5772256,26.8682134 C7.92714671,26.8682134 8.21090253,26.582149 8.21090253,26.229381 C8.21090253,25.876613 7.92714671,25.5905486 7.5772256,25.5905486 L7.54474562,25.5905486 C7.57456123,25.4655193 7.59080122,25.3351819 7.59080122,25.2010073 L7.59080122,23.166196 L7.63774495,23.166196 C7.83624081,23.166196 8.02319104,23.072504 8.14302443,22.9130037 C8.26279438,22.7535035 8.30155468,22.5466776 8.24769626,22.3541133 L7.81372051,20.8009365 L13.5301347,20.8009365 L26.3910675,26.8089284 C26.4754393,26.8483238 26.5664087,26.8681494 26.6575049,26.8681494 C26.7371189,26.8681494 26.8168598,26.8530564 26.892287,26.8226784 C26.9830025,26.7862249 27.0624897,26.7290503 27.126625,26.6576142 L29.5043884,27.8016799 C29.7840208,27.9362383 30.0794491,28 30.3705636,28 C31.1244546,28 31.8491008,27.5725342 32.1949619,26.8420563 L32.2822519,26.657806 C32.5143062,26.1674099 32.5431702,25.6151707 32.363325,25.1028385 Z M27.6093842,7.34714807 L28.109779,6.84268217 C28.2209214,6.73057153 28.3670179,6.67454819 28.5129875,6.67454819 C28.6591475,6.67454819 28.8051171,6.73057153 28.9162596,6.84268217 L29.7566158,7.68987535 C29.9789641,7.91403267 29.9789641,8.27882394 29.7566158,8.50304522 L29.256221,9.00744717 C29.1485676,9.11604036 29.0052623,9.17583696 28.852949,9.17583696 C28.7006356,9.17583696 28.5573938,9.11604036 28.4497404,9.00744717 L27.6093842,8.16031794 C27.3869724,7.93609666 27.3869724,7.5713054 27.6093842,7.34714807 Z M22.7622537,10.3172806 C22.8903339,10.3355074 23.0208248,10.3135073 23.1361541,10.25467 L26.2955306,8.64303962 L27.733785,10.132071 L24.7346516,12.0075739 C24.5836704,12.1030566 24.4095346,12.1536439 24.2312118,12.1536439 L16.7978624,12.1536439 C16.598859,12.1536439 16.4114013,12.2478476 16.2917582,12.4080513 L14.9116126,14.2547112 L14.1397054,11.9017307 L15.7759481,9.33220349 L22.7622537,10.3172806 Z M13.6276381,10.3407516 L13.1233102,8.80356313 C13.2921173,8.88913303 13.4696788,8.96235989 13.6562484,9.01998207 C13.8945195,9.0936566 14.1367238,9.14002296 14.3792453,9.1603602 L13.6276381,10.3407516 Z M12.610101,5.10563877 L12.7578469,4.61984731 C12.9252584,4.06933483 13.2952257,3.61756668 13.799744,3.34761859 C14.1129348,3.17999623 14.4547359,3.09500191 14.7994551,3.09500191 C15.0100041,3.09500191 15.2217584,3.12672289 15.4288183,3.19067648 C16.5559753,3.53903168 17.191936,4.74698704 16.8463921,5.8833144 L16.6987096,6.36910585 C16.5312981,6.91961833 16.1613308,7.37138648 15.6568126,7.64133458 C15.1523578,7.91128267 14.5739349,7.96711415 14.0276748,7.79821273 C12.9005178,7.45004939 12.2646205,6.24209402 12.610101,5.10563877 Z M6.56406571,1.94997687 L7.0644605,1.44551097 C7.17560296,1.33340033 7.32169946,1.27737699 7.46766909,1.27737699 C7.61382903,1.27737699 7.75979865,1.33340033 7.87094111,1.44551097 L8.71129732,2.2926402 C8.9337091,2.51679753 8.9337091,2.88158879 8.71129732,3.10581007 L8.21090253,3.61027597 C7.98861762,3.83449725 7.6266434,3.83449725 7.40435849,3.61027597 L6.56400227,2.76314675 C6.34165393,2.53892547 6.34165393,2.1741342 6.56406571,1.94997687 Z M8.35249497,9.06366237 C8.01234324,9.14667413 7.80331676,9.49195955 7.8856586,9.83487869 L8.09208414,10.694351 L2.54403301,8.14100396 C2.16715098,7.96762578 1.91492358,7.63135782 1.85186673,7.21860136 C1.78880988,6.8058449 1.92919701,6.40856521 2.23686876,6.12896013 L5.29284218,3.35139185 L6.80607967,4.81036505 L4.86692298,6.46049553 C4.67654712,6.62242601 4.59801153,6.88182176 4.66607994,7.12337447 C4.73421178,7.36492717 4.93638701,7.54386931 5.18271472,7.58064262 L11.7069417,8.55503949 L13.8128755,14.974253 L10.4239822,14.9745727 L9.11761434,9.53416892 C9.03514562,9.19137769 8.69302733,8.98071457 8.35249497,9.06366237 Z M5.93698629,25.5906125 L1.36568193,25.5906125 C1.63459338,24.7422042 2.42407274,24.1260754 3.35374892,24.1260754 C3.70367002,24.1260754 3.98742584,23.840011 3.98742584,23.487243 C3.98742584,23.370144 3.95564367,23.2607194 3.90102401,23.1663239 L6.32325708,23.1663239 L6.32325708,25.2010712 C6.3233205,25.4157634 6.15007276,25.5906125 5.93698629,25.5906125 Z M31.1383474,26.1074215 L31.0511209,26.2916078 C30.8727981,26.6682305 30.4238511,26.8283063 30.0502678,26.6486607 L27.6320313,25.4851531 L28.0136077,24.5157446 L28.3028826,23.904732 L30.7841125,25.0986176 C30.9650996,25.1857224 31.1016171,25.3386354 31.1684802,25.5291531 C31.2354067,25.7197348 31.2246858,25.9250898 31.1383474,26.1074215 Z" id="Shape"></path>
                    </g>
                </g>
            </g>
        </g>
    </g>
</svg>