<?xml version="1.0" encoding="UTF-8"?>
<svg width="24px" height="32px" viewBox="0 0 24 32" version="1.1" xmlns="http://www.w3.org/2000/svg" xmlns:xlink="http://www.w3.org/1999/xlink">
    <title>Shape</title>
    <g id="Coaching" stroke="none" stroke-width="1" fill="none" fill-rule="evenodd">
        <g id="Home" transform="translate(-251.000000, -92.000000)" fill="#424242" fill-rule="nonzero">
            <g id="Card-1-Copy-5" transform="translate(235.000000, 80.000000)">
                <g id="001-dancer" transform="translate(8.000000, 8.000000)">
                    <g id="009-ballet" transform="translate(8.666667, 4.000000)">
                        <path d="M21.6959159,8.18143343 C20.8166893,7.38899092 19.7038486,6.90458052 18.5624409,6.81765122 L17.7359044,5.49607381 C17.4235726,4.99654527 17.2585192,4.42205595 17.2585192,3.83433826 C17.2585192,3.42797525 17.7174946,0.728820332 17.7174946,0.728820332 C17.786944,0.424693749 17.549394,0 17.0902917,0 L5.17140596,0 C4.8611056,0 4.5962584,0.222614611 4.54521882,0.526363241 L4.27732448,2.12132701 C4.08567211,3.26217965 3.62917254,4.36460702 2.95702437,5.30942777 C2.07913081,6.54357194 1.51794931,7.98855116 1.35524476,9.48896356 C1.17952639,11.1089982 0.368289007,18.2413587 0.0863651303,21.2327347 C-0.0827511062,23.0272579 -0.0100641352,24.7981591 0.362639102,26.5021624 C0.669003576,27.9030471 1.08944533,29.2907663 1.61222018,30.626643 C1.93870847,31.4609753 2.72963159,32 3.62714111,32 L7.64250905,32 C8.65492111,32 9.52043567,31.3154002 9.7472571,30.3351148 C10.2174053,28.3039297 10.4557805,26.2080516 10.4557805,24.1058112 C10.4557805,23.0276989 10.4088672,21.937177 10.3339584,20.8831277 C10.4706353,21.2333646 12.8025857,26.8854073 14.8761006,30.9964705 C15.0265531,31.2948018 15.5180313,32 16.4802925,32 L17.85214,32 C18.9583786,32 19.6588398,31.4090697 19.9248297,31.1419826 C20.1901847,30.8761553 20.7710457,30.1894138 20.7710457,29.106703 C20.7710457,28.959931 20.7602537,28.8118992 20.7374002,28.6657572 L20.0390974,23.9534169 C19.9118793,23.1243129 18.6568388,23.3139826 18.7840568,24.1430236 C18.7840568,24.1430236 19.5014042,28.8178205 19.5014042,29.106703 C19.5014042,29.9882795 18.7863422,30.740092 17.8508704,30.740092 L16.4802925,30.740092 C16.2854025,30.740092 16.1057483,30.6273359 16.0219519,30.4534773 C14.7660861,27.8457871 13.5851292,25.35142 12.5598937,22.9645176 C12.7125681,17.4657982 14.8077939,12.1942287 18.4750261,8.0735277 C19.318195,8.14029949 20.1858044,8.51819 20.8415108,9.11296282 C21.6388456,9.83674377 22.0673495,10.769659 22.080046,11.8109209 C22.080046,12.102512 21.970222,12.3495046 21.7785061,12.5378515 L19.1459046,15.1217935 C18.2273191,15.9735118 17.8955618,17.2109945 17.8838811,18.1221144 C17.8811513,18.3350282 17.9003864,18.5485719 17.9321275,18.7577062 L18.7840568,24.6721988 C18.911021,25.499665 20.1660615,25.3100583 20.0390974,24.4825921 C20.0390974,24.4825921 19.1535225,18.5520995 19.1535225,18.1221144 C19.1535225,17.3366011 19.4760114,16.5693555 20.0390974,16.0175433 L22.671064,13.4336012 C23.4185019,12.6897888 23.3496874,11.7970626 23.3496874,11.7970626 C23.3496239,9.91416125 22.1974243,8.63245794 21.6959159,8.18143343 Z M17.4115745,7.36612474 C15.9208885,9.06426981 14.6814011,10.9445255 13.7161562,12.9495058 C12.3819535,12.6384501 11.0581619,12.2450005 9.7656669,11.7766531 C11.0852687,9.80392481 12.7079974,8.07044108 14.5995092,6.61437523 L16.8025275,6.39220156 L17.4115745,7.36612474 Z M12.7296448,15.3033372 C11.6661931,15.0428643 10.6082009,14.7332573 9.5730623,14.3809417 C9.48037848,13.9868622 9.29672485,13.2953963 9.34389203,12.9648759 C10.6031224,13.4206248 11.8911101,13.8078382 13.1897628,14.1200278 C13.026233,14.5105168 12.8727969,14.9051002 12.7296448,15.3033372 Z M6.96096554,9.55762511 C7.51192643,9.34011287 8.07133044,9.14168729 8.63606694,8.96379717 C8.54078035,9.54905817 8.43743154,10.2024768 8.34366852,10.8339111 C7.89770697,10.3914535 7.43670017,9.9657519 6.96096554,9.55762511 Z M9.8287046,9.54332587 C10.0301967,8.28807931 10.2360056,7.10162028 10.2434965,7.05374617 L12.3603696,6.84026543 C11.4433076,7.67358991 10.5979803,8.57626885 9.8287046,9.54332587 L9.8287046,9.54332587 Z M12.0758429,1.259845 L16.3463453,1.259845 L16.120984,2.6619265 L11.3317696,3.14488808 L12.0758429,1.259845 Z M15.9907822,3.94142508 C16.0011298,4.3663708 16.0726106,4.78539525 16.2028124,5.18634092 L10.4953933,5.7619641 C10.5986786,5.32322308 10.7201198,4.88870254 10.8571141,4.45915838 L15.9907822,3.94142508 Z M5.70916258,1.259845 L10.7122481,1.259845 C10.7122481,1.259845 9.99166308,3.08844702 9.9554783,3.18469918 L5.47624687,2.61424137 C5.49554542,2.51924905 5.70916258,1.259845 5.70916258,1.259845 L5.70916258,1.259845 Z M5.1351577,3.84095244 L9.54500323,4.40259134 C9.41086561,4.85122215 9.29386815,5.30495532 9.19382041,5.76221607 L4.59384608,5.06501784 C4.8040987,4.67100132 4.98540349,4.2614887 5.1351577,3.84095244 L5.1351577,3.84095244 Z M3.86189781,6.2284847 L8.9658563,7.00209252 C8.96566585,7.00341536 8.9654754,7.0047382 8.96522147,7.00599804 C8.95576265,7.06004539 8.91964135,7.26766785 8.86688775,7.57784169 C7.84120793,7.87346432 6.82828801,8.23377999 5.845776,8.65217451 C5.0678667,8.05601586 4.25586754,7.50357383 3.41263519,6.99692716 C3.54747111,6.73280066 3.69697139,6.47598125 3.86189781,6.2284847 Z M2.92667994,8.17935468 C4.84542553,9.35346723 6.59080158,10.7789818 8.12636939,12.4266701 C8.09069247,12.7267652 8.02524245,13.8298225 8.02752781,14.2119335 C6.48923027,12.3635519 4.68297491,10.777911 2.63631295,9.48058559 C2.69528779,9.03875795 2.79247884,8.60322953 2.92667994,8.17935468 Z M2.47271965,10.8816592 C3.0996051,11.3040223 3.70128817,11.7560546 4.2768801,12.2368115 C3.54943905,12.6572218 2.84408977,13.1175061 2.1659108,13.614452 C2.17848025,13.5064833 2.37451289,11.7386058 2.47271965,10.8816592 Z M1.95686435,15.378109 C2.99124121,14.5279656 4.10458976,13.7713027 5.27551656,13.1236164 C6.30665583,14.0986734 7.59915079,15.5834637 8.07532981,16.3888197 C8.10294451,17.9774212 7.66015706,19.5842905 6.79495992,21.0358209 C6.33433402,21.8086099 5.51566923,22.2367682 4.6054633,22.1799492 C3.69735228,22.1236971 2.94077296,21.5999165 2.5815914,20.7786236 C2.07773421,19.6268733 1.8222823,18.4006032 1.8222823,17.133892 C1.82221887,16.6998124 1.88246336,16.0473387 1.95686435,15.378109 L1.95686435,15.378109 Z M8.50986458,30.0532245 C8.41622853,30.4576978 8.05958625,30.740218 7.64250905,30.740218 L3.62714111,30.740218 C3.25748501,30.740218 2.93118717,30.5166585 2.79577991,30.1706421 C2.29700128,28.8959309 1.89579459,27.5717708 1.60345966,26.2350123 C1.25945032,24.6620328 1.16295757,22.7076353 1.37073439,21.1730181 C1.9329316,22.5126112 3.15286656,23.3582822 4.52642812,23.4373375 C5.97121657,23.5204872 7.22936773,22.7817141 7.88780377,21.677208 C8.33579674,20.9256475 8.68367849,20.1359766 8.92700527,19.3269042 C9.07720385,20.8330489 9.18620256,22.4847057 9.18620256,24.1058742 C9.18620256,26.1133742 8.95855586,28.1143231 8.50986458,30.0532245 L8.50986458,30.0532245 Z M9.94919357,15.8318422 C10.7358634,16.0807876 11.5326903,16.3056069 12.3327549,16.5037175 C11.9512276,17.7654523 11.6705734,19.0595021 11.4956168,20.3739614 C10.8869507,18.8123835 10.3631602,17.2989317 9.94919357,15.8318422 L9.94919357,15.8318422 Z" id="Shape"></path>
                    </g>
                </g>
            </g>
        </g>
    </g>
</svg>