<?xml version="1.0" encoding="utf-8"?>
<!-- Generator: Adobe Illustrator 24.0.3, SVG Export Plug-In . SVG Version: 6.00 Build 0)  -->
<svg version="1.1" id="Capa_1" xmlns="http://www.w3.org/2000/svg" xmlns:xlink="http://www.w3.org/1999/xlink" x="0px" y="0px"
	 viewBox="0 0 24 24" style="enable-background:new 0 0 24 24;" xml:space="preserve">
<style type="text/css">
	.st0{fill:#FFFFFF;}
</style>
<g>
	<path class="st0" d="M18.8,6.6c-0.6-0.5-1.4-0.9-2.1-0.9l-0.6-0.9c-0.2-0.3-0.3-0.7-0.3-1.1c0-0.3,0.3-2.1,0.3-2.1
		C16.2,1.3,16,1,15.7,1H7.6C7.4,1,7.2,1.2,7.1,1.4L7,2.5C6.8,3.2,6.5,4,6.1,4.6C5.5,5.5,5.1,6.5,5,7.5c-0.1,1.1-0.7,6-0.9,8.1
		C4,16.8,4,18,4.3,19.2c0.2,1,0.5,1.9,0.9,2.8c0.2,0.6,0.7,1,1.3,1h2.7c0.7,0,1.3-0.5,1.4-1.1c0.3-1.4,0.5-2.8,0.5-4.3
		c0-0.7,0-1.5-0.1-2.2c0.1,0.2,1.7,4.1,3.1,7c0.1,0.2,0.4,0.7,1.1,0.7h0.9c0.8,0,1.2-0.4,1.4-0.6c0.2-0.2,0.6-0.7,0.6-1.4
		c0-0.1,0-0.2,0-0.3L17.2,15c-0.1-0.6-0.9-0.4-0.9,0.1c0,0,0.9,5.8,0.9,6c0,0.6-0.5,1.1-1.1,1.1h-0.9c-0.1,0-0.3-0.1-0.3-0.2
		c-0.9-1.8-1.7-3.5-2.4-5.1c0.1-3.8,1.5-7.4,4-10.2c0.6,0,1.2,0.3,1.6,0.7c0.5,0.5,0.8,1.1,0.8,1.9c0,0.2-0.1,0.4-0.2,0.5l-1.8,1.8
		C16.3,12.2,16,13,16,13.7c0,0.1,0,0.3,0,0.4l0.2,1.6c0.1,0.6,0.9,0.4,0.9-0.1c0,0-0.3-1.6-0.3-1.9c0-0.5,0.2-1.1,0.6-1.4l1.8-1.8
		C20,9.7,20,9.1,20,9.1C20,7.8,19.2,6.9,18.8,6.6L18.8,6.6z M15.9,6.1c-1,1.2-1.9,2.5-2.5,3.8c-0.9-0.2-1.8-0.5-2.7-0.8
		c0.9-1.4,2-2.5,3.3-3.5l1.5-0.2L15.9,6.1z M12.7,11.5c-0.7-0.2-1.4-0.4-2.2-0.6c-0.1-0.3-0.2-0.7-0.2-1c0.9,0.3,1.7,0.6,2.6,0.8
		C12.9,11,12.8,11.2,12.7,11.5z M8.8,7.6c0.4-0.1,0.8-0.3,1.1-0.4c0,0.4-0.1,0.8-0.2,1.2C9.4,8.1,9.1,7.9,8.8,7.6L8.8,7.6z
		 M10.7,7.6C10.9,6.7,11,5.9,11,5.8l1.4-0.1C11.8,6.3,11.3,6.9,10.7,7.6L10.7,7.6z M12.3,1.9h2.9l-0.2,1l-3.3,0.3L12.3,1.9z
		 M14.9,3.7C15,4,15,4.3,15.1,4.6L11.2,5c0.1-0.3,0.2-0.6,0.2-0.9L14.9,3.7z M7.9,1.9h3.4l-0.5,1.3l-3-0.4C7.8,2.7,7.9,1.9,7.9,1.9z
		 M7.5,3.6l3,0.4c-0.1,0.3-0.2,0.6-0.2,0.9L7.2,4.5C7.3,4.2,7.4,3.9,7.5,3.6z M6.7,5.3l3.5,0.5l0,0c0,0,0,0.2-0.1,0.4
		C9.4,6.4,8.7,6.7,8,6.9C7.5,6.5,6.9,6.2,6.4,5.8C6.5,5.6,6.6,5.5,6.7,5.3z M6,6.6c1.3,0.8,2.5,1.8,3.5,2.9c0,0.2-0.1,1-0.1,1.2
		c-1-1.3-2.3-2.4-3.7-3.3C5.9,7.2,5.9,6.9,6,6.6L6,6.6z M5.7,8.5C6.1,8.8,6.6,9.1,7,9.4c-0.5,0.3-1,0.6-1.5,1
		C5.5,10.3,5.7,9.1,5.7,8.5z M5.4,11.6C6.1,11,6.8,10.5,7.6,10c0.7,0.7,1.6,1.7,1.9,2.2c0,1.1-0.3,2.2-0.9,3.2
		c-0.3,0.5-0.9,0.8-1.5,0.8s-1.1-0.4-1.4-1c-0.3-0.8-0.5-1.6-0.5-2.5C5.3,12.5,5.3,12,5.4,11.6z M9.8,21.7c-0.1,0.3-0.3,0.5-0.6,0.5
		H6.5c-0.3,0-0.5-0.2-0.6-0.4C5.6,20.9,5.3,20,5.1,19c-0.2-1-0.3-2.4-0.1-3.4c0.4,0.9,1.2,1.5,2.2,1.6S9,16.7,9.5,16
		c0.3-0.5,0.5-1.1,0.7-1.6c0.1,1,0.2,2.2,0.2,3.3C10.3,19,10.1,20.3,9.8,21.7L9.8,21.7z M10.8,11.9c0.5,0.2,1.1,0.3,1.6,0.5
		c-0.3,0.9-0.5,1.8-0.6,2.7C11.5,13.9,11.1,12.9,10.8,11.9L10.8,11.9z"/>
</g>
</svg>
