<?xml version="1.0" encoding="utf-8"?>
<!-- Generator: Adobe Illustrator 24.0.3, SVG Export Plug-In . SVG Version: 6.00 Build 0)  -->
<svg version="1.1" id="Layer_1" xmlns="http://www.w3.org/2000/svg" xmlns:xlink="http://www.w3.org/1999/xlink" x="0px" y="0px"
	 viewBox="0 0 24 24" style="enable-background:new 0 0 24 24;" xml:space="preserve">
<style type="text/css">
	.st0{fill:#FFFFFF;}
</style>
<path class="st0" d="M1.6,6.5v15.8c0,0.4,0.3,0.7,0.7,0.7h2.2c0.4,0,0.7-0.3,0.7-0.7V6.5c0-0.1,0-0.2,0-0.4l0,0h2.9l0,0
	c0,0.1,0,0.2,0,0.4v15.8c0,0.4,0.3,0.7,0.7,0.7H11c0.4,0,0.7-0.3,0.7-0.7v-8.8c1.2,1.1,2.9,1.4,4.3,0.6L13,22
	c-0.1,0.2-0.1,0.5,0.1,0.7c0.1,0.2,0.4,0.3,0.6,0.3h2.4c0.3,0,0.6-0.2,0.7-0.5l5.4-14.4c0.1-0.2,0.1-0.4,0.1-0.7
	c0-0.6-0.3-1.2-0.8-1.5s-1.2-0.4-1.7-0.1c-0.4,0.2-0.8,0.6-1,1l-1.1,2.8c-0.4-1.2-1.4-2-2.6-2.3s-2.5,0.1-3.4,1V6.5
	c0-0.5-0.2-1-0.5-1.3c0-0.1-0.2-0.2-0.3-0.3c0.1-0.2,0.2-0.4,0.2-0.6c0-0.6-0.5-1.1-1.1-1.1H9.2C9,2.8,8.6,2.5,8.2,2.5h-3
	c-0.5,0-0.9,0.3-1,0.7H3.4c-0.6,0-1.1,0.5-1.1,1.1c0,0.2,0.1,0.4,0.2,0.6C1.9,5.2,1.6,5.8,1.6,6.5z M18,11.2l1.5-4.1
	c0.2-0.5,0.7-0.8,1.2-0.7c0.5,0.1,0.9,0.5,0.9,1.1c0,0.1,0,0.3-0.1,0.4l-5.4,14.4h-2.4l3.4-9.2C17.7,12.5,18,11.9,18,11.2z
	 M11.8,9.5L11.8,9.5c0.7-1.3,2.3-1.9,3.7-1.3l-0.1,0.1c-0.1,0.1-0.1,0.2-0.1,0.4c0,0.1,0.1,0.2,0.3,0.3c0.1,0,0.3,0,0.4-0.1l0.2-0.2
	c0.2,0.1,0.4,0.3,0.5,0.5l-0.2,0.2c-0.1,0.1-0.1,0.2-0.1,0.4c0,0.1,0.1,0.2,0.3,0.3c0.1,0,0.3,0,0.4-0.1l0.1-0.1
	c0.5,1.1,0.2,2.4-0.6,3.2c-0.9,0.8-2.1,1.1-3.2,0.6c0.1-0.2,0-0.4-0.1-0.5s-0.3-0.1-0.5,0l0,0c-0.2-0.1-0.4-0.3-0.5-0.5l0,0
	c0.1-0.1,0.1-0.3,0-0.5c-0.1-0.1-0.3-0.2-0.5-0.1C11.3,11.3,11.4,10.3,11.8,9.5z M9.3,3.9H10c0.1,0,0.2,0,0.3,0.1s0.1,0.2,0.1,0.3
	c0,0.2-0.2,0.4-0.4,0.4H9.3V3.9z M8.9,6.5c0-0.6,0.5-1.1,1.1-1.1s1.1,0.5,1.1,1.1v2.8c-0.5,1-0.5,2.2,0,3.2v9.8H8.9V6.5z M4.9,3.6
	c0-0.2,0.2-0.4,0.4-0.4h2.9c0.2,0,0.4,0.2,0.4,0.4V5c0,0.2-0.2,0.4-0.4,0.4h-3C5,5.4,4.9,5.2,4.9,5V3.6z M3.1,4
	c0.1,0,0.2-0.1,0.3-0.1h0.7v0.7H3.4C3.2,4.7,3,4.5,3,4.3C3,4.2,3.1,4.1,3.1,4z M2.3,6.5c0-0.6,0.5-1.1,1.1-1.1s1.1,0.5,1.1,1.1v15.8
	H2.3V6.5z"/>
<path class="st0" d="M19.8,1.6c-0.2-0.2-0.5-0.2-0.8-0.2l-0.8,0.2C17.9,1.1,17.5,0.9,17,1l-2.9,0.6c-0.5,0.1-0.8,0.5-0.9,0.9
	l-0.8,0.2c-0.6,0.1-1,0.7-0.9,1.3c0.1,0.5,0.6,0.9,1.1,0.9c0.1,0,0.1,0,0.2,0l0.8-0.2c0.2,0.4,0.7,0.6,1.2,0.5l2.9-0.6
	c0.5-0.1,0.8-0.5,0.9-0.9l0.8-0.2c0.6-0.1,1-0.7,0.9-1.3C20.2,2,20,1.7,19.8,1.6z M12.7,4.1c-0.1,0-0.3,0-0.4-0.2
	c-0.1-0.1-0.1-0.3,0-0.4c0.1-0.1,0.1-0.1,0.2-0.2l0.7-0.1l0.1,0.7L12.7,4.1z M17.6,3.9l-2.9,0.6c-0.1,0-0.2,0-0.3-0.1
	s-0.1-0.1-0.2-0.2L14,2.7c0-0.2,0.1-0.4,0.3-0.4l2.9-0.6c0,0,0,0,0.1,0c0.2,0,0.3,0.1,0.4,0.3L18,3.4C17.9,3.7,17.8,3.9,17.6,3.9
	L17.6,3.9z M19.2,2.8L18.5,3l-0.1-0.7l0.7-0.1c0.1,0,0.2,0,0.3,0.1c0.1,0.1,0.1,0.1,0.2,0.2C19.6,2.6,19.4,2.8,19.2,2.8L19.2,2.8z"
	/>
<path class="st0" d="M13.7,11c0.1,0,0.2,0,0.3-0.1l0.3-0.3c0.1-0.1,0.1-0.2,0.1-0.4c0-0.1-0.1-0.2-0.3-0.3c-0.1,0-0.3,0-0.4,0.1
	l-0.3,0.3c-0.1,0.1-0.1,0.3-0.1,0.4C13.4,10.9,13.5,11,13.7,11z"/>
<path class="st0" d="M14.7,9.9c0.1,0,0.2,0,0.3-0.1l0.3-0.3c0.1-0.1,0.1-0.2,0.1-0.4c0-0.1-0.1-0.2-0.3-0.3c-0.1,0-0.3,0-0.4,0.1
	l-0.3,0.3c-0.1,0.1-0.1,0.3-0.1,0.4C14.4,9.8,14.6,9.9,14.7,9.9z"/>
<path class="st0" d="M12.6,12c0.1,0,0.2,0,0.3-0.1l0.3-0.3c0.1-0.1,0.1-0.2,0.1-0.4c0-0.1-0.1-0.2-0.3-0.3s-0.3,0-0.4,0.1l-0.3,0.3
	c-0.1,0.1-0.1,0.3-0.1,0.4C12.4,11.9,12.5,12,12.6,12z"/>
<path class="st0" d="M13.7,12.1l-0.3,0.3c-0.1,0.1-0.1,0.2-0.1,0.4c0,0.1,0.1,0.2,0.3,0.3c0.1,0,0.3,0,0.4-0.1l0.3-0.3
	c0.1-0.1,0.1-0.4,0-0.5C14,12,13.8,12,13.7,12.1z"/>
<path class="st0" d="M14.7,12c0.1,0,0.2,0,0.3-0.1l0.3-0.3c0.1-0.1,0.1-0.2,0.1-0.4c0-0.1-0.1-0.2-0.3-0.3c-0.1,0-0.3,0-0.4,0.1
	l-0.3,0.3c-0.1,0.1-0.1,0.3-0.1,0.4C14.4,11.9,14.6,12,14.7,12z"/>
<path class="st0" d="M15.7,11c0.1,0,0.2,0,0.3-0.1l0.3-0.3c0.1-0.1,0.1-0.4,0-0.5s-0.4-0.1-0.5,0l-0.3,0.3c-0.1,0.1-0.1,0.3-0.1,0.4
	C15.5,10.9,15.6,11,15.7,11z"/>
</svg>
