<?xml version="1.0" encoding="utf-8"?>
<!-- Generator: Adobe Illustrator 24.0.3, SVG Export Plug-In . SVG Version: 6.00 Build 0)  -->
<svg version="1.1" id="Capa_1" xmlns="http://www.w3.org/2000/svg" xmlns:xlink="http://www.w3.org/1999/xlink" x="0px" y="0px"
	 viewBox="0 0 24 24" style="enable-background:new 0 0 24 24;" xml:space="preserve">
<g>
	<g>
		<path d="M16.5,14.7l0.4-1c0.1-0.2,0-0.3-0.1-0.5l-1.1-1.1l6.8-6.5l0,0c0.3-0.3,0.4-0.7,0.4-1.2c-0.3-1.7-1.7-3.1-3.4-3.4
			c-0.4-0.1-0.9,0-1.2,0.4l0,0L12,8.1L5.6,1.4l0,0C5.3,1.1,4.9,0.9,4.5,1C3.6,1.2,2.8,1.6,2.2,2.2S1.2,3.6,1,4.5c0,0.1,0,0.2,0,0.3
			c0,0.3,0.1,0.7,0.4,0.9l0,0l6.8,6.5l-1.1,1.1C7,13.3,7,13.5,7,13.7l0.4,1l-6.1,6.1C1.1,21,1,21.4,1,21.7s0.1,0.7,0.4,0.9
			C1.6,22.9,1.9,23,2.3,23s0.7-0.1,0.9-0.4l6.1-6.1l1,0.4c0.1,0,0.1,0,0.2,0c0.1,0,0.2,0,0.3-0.1l1.2-1.2l1.2,1.2
			c0.1,0.1,0.2,0.1,0.3,0.1s0.1,0,0.2,0l1-0.4l6.1,6.1c0.2,0.2,0.6,0.4,0.9,0.4s0.7-0.1,0.9-0.4c0.2-0.2,0.4-0.6,0.4-0.9
			s-0.1-0.7-0.4-0.9L16.5,14.7z M19,2c0.1-0.1,0.2-0.1,0.4-0.1c1.4,0.3,2.5,1.4,2.8,2.8c0,0.1,0,0.3-0.1,0.4l-6.8,6.5l-2.6-2.8L19,2
			z M2.6,22c-0.1,0.1-0.2,0.1-0.3,0.1S2.1,22.1,2,22c-0.1-0.1-0.1-0.2-0.1-0.3c0-0.1,0-0.2,0.1-0.3l0.7-0.7l0.6,0.6L2.6,22z
			 M3.9,20.7l-0.6-0.6l4.6-4.6c0,0.1,0.1,0.1,0.1,0.1c0,0.1,0.1,0.2,0.1,0.3C8.2,16,8.3,16,8.4,16l0.1,0.1L3.9,20.7z M7.9,13.6
			l0.9-0.9l1,0.9l-1.3,1.3L7.9,13.6z M10.4,16.1l-1.3-0.6l1.3-1.3l1,0.9L10.4,16.1z M10.5,11.1l4.4,4.4l-1.3,0.6l-4.5-4.3L2,5
			C1.9,4.9,1.9,4.8,1.9,4.7V4.6c0.1-0.7,0.5-1.3,1-1.8S4,2,4.7,1.8c0.1,0,0.3,0,0.4,0.1l11,11.6l-0.6,1.3l-4.4-4.4
			c-0.2-0.2-0.4-0.2-0.6,0C10.3,10.6,10.3,10.9,10.5,11.1z M20.1,20.7l-4.6-4.6c0.1,0,0.1-0.1,0.1-0.1c0.1,0,0.2-0.1,0.3-0.1
			c0.1-0.1,0.1-0.2,0.1-0.3l0.1-0.1l4.6,4.6L20.1,20.7z M22,22c-0.1,0.1-0.2,0.1-0.3,0.1c-0.1,0-0.2,0-0.3-0.1l-0.7-0.7l0.6-0.6
			l0.7,0.7c0.1,0.1,0.1,0.2,0.1,0.3S22.1,21.9,22,22z"/>
	</g>
</g>
<g>
	<g>
		<path d="M12,17.6c-1.4,0-2.6,1.2-2.6,2.6s1.2,2.6,2.6,2.6s2.6-1.2,2.6-2.6S13.4,17.6,12,17.6z M12,21.9c-0.9,0-1.7-0.8-1.7-1.7
			c0-0.9,0.8-1.7,1.7-1.7s1.7,0.8,1.7,1.7S12.9,21.9,12,21.9z"/>
	</g>
</g>
</svg>
