<?xml version="1.0" encoding="utf-8"?>
<!-- Generator: Adobe Illustrator 24.0.3, SVG Export Plug-In . SVG Version: 6.00 Build 0)  -->
<svg version="1.1" id="Capa_1" xmlns="http://www.w3.org/2000/svg" xmlns:xlink="http://www.w3.org/1999/xlink" x="0px" y="0px"
	 viewBox="0 0 512 512" style="enable-background:new 0 0 512 512;" xml:space="preserve">
<style type="text/css">
	.st0{fill:#FFFFFF;}
</style>
<g>
	<g>
		<path class="st0" d="M162.3,176.6c5.3-28.8,21.2-116.3,29.2-167.9c0.3-2.2-0.3-4.4-1.7-6C188.4,1,186.3,0,184.1,0H72.2
			c-2.1,0-4.1,0.9-5.5,2.4s-2.1,3.6-2,5.7c0.8,9.6,2,19.9,3.3,30.8c5.3,44.8,12.6,106.1-4,197.5c-2.2,12.1-2.6,34.5-2.6,56.7
			c-3.4,22.2-5.1,50.7-5.1,87.2c0,36.8,4.8,68.1,13.9,90.6c13.7,33.9,34.4,41.1,49.2,41.1c40.7,0,63.2-46.8,63.2-131.7
			c0-71.8-6.3-113.6-20.4-134.8c-2.2-23.7-3.9-46.8-1.5-60.9C160.9,184.1,161.5,181.2,162.3,176.6z M78.3,242.5
			c9.4,1.6,22.7,3.2,37.7,3.2c9.9,0,20.5-0.7,31.1-2.7c0.2,2,0.4,3.9,0.6,5.9l0,0v0.1c0.1,0.9,0.2,1.7,0.2,2.6
			c-6.6,10.1-18.6,26.8-35,42.3c-6.4-5.8-11.9-11.8-16.4-17.3c-8.5-10.3-14.8-20.3-18.8-27.4C77.8,246.7,78.1,244.5,78.3,242.5z
			 M124.9,303.7c4.7-4.5,9.4-9.4,13.9-14.6c4.2-4.8,7.9-9.5,11.2-13.8c1.4,15,2.4,29.8,2.4,42.6c0,0.2,0,0.4,0,0.7
			C142.3,314.8,133.1,309.6,124.9,303.7z M152.5,334.7c-0.2,20.4-1.1,39.1-5.3,52.7c-5.3,17.1-15.1,24.5-32.7,24.5
			s-27.4-7.3-32.7-24.5c-4.1-13.2-5.1-31.1-5.3-50.8c12.4-5.2,24.6-12.7,36.5-22.4C124.4,322.8,137.5,330.1,152.5,334.7z
			 M76.5,293.7L76.5,293.7c0-5.9,0-11.8,0.1-17.6c6.4,9,14.6,18.8,24.5,28c-7.5,6-15.8,11.3-24.6,15.7c0-0.6,0-1.3,0-1.9
			c0-3.2,0-6.5,0-9.9C76.5,303.3,76.5,298.5,76.5,293.7z M161.6,391.9v-0.1c0.3-1,0.6-2.1,0.9-3.2c0.1-0.3,0.1-0.5,0.2-0.8
			c0.3-1.1,0.5-2.2,0.8-3.3c0.1-0.2,0.1-0.5,0.2-0.8c0.2-1,0.4-2.1,0.6-3.2c0-0.2,0.1-0.3,0.1-0.5c0.2-1.2,0.4-2.4,0.6-3.6
			c0-0.3,0.1-0.6,0.1-0.9c0.2-1.2,0.3-2.4,0.5-3.6c0-0.2,0.1-0.5,0.1-0.8c0.1-1.1,0.3-2.2,0.4-3.3c0-0.3,0.1-0.6,0.1-0.9
			c0.1-1.3,0.2-2.5,0.3-3.8c0-0.4,0.1-0.7,0.1-1.1c0.1-1.3,0.2-2.6,0.3-3.9c0-0.2,0-0.4,0-0.6c0.1-1.2,0.1-2.4,0.2-3.6
			c0-0.4,0-0.7,0.1-1.1c0.1-1.1,0.1-2.3,0.1-3.5c0.3,9.6,0.5,19.9,0.5,30.9c0,35.1-4.7,116.6-48.1,116.6c-30.7,0-44.3-45-47.4-93.7
			c0,0.1,0.1,0.1,0.1,0.2c0.5,0.9,0.9,1.7,1.4,2.5c0.1,0.2,0.2,0.3,0.3,0.5c0.5,0.8,1,1.6,1.5,2.3l0.1,0.1c0.5,0.8,1.1,1.5,1.7,2.2
			c0.1,0.1,0.2,0.3,0.4,0.4c0.6,0.7,1.2,1.4,1.8,2c0.1,0.1,0.2,0.2,0.3,0.3c0.6,0.6,1.2,1.2,1.8,1.8c0.1,0.1,0.1,0.1,0.2,0.2
			c0.7,0.6,1.3,1.2,2,1.7c0.1,0.1,0.3,0.2,0.4,0.3c0.7,0.5,1.4,1,2.1,1.5c0.1,0.1,0.2,0.1,0.3,0.2c0.7,0.5,1.4,0.9,2.1,1.3
			c0.1,0.1,0.2,0.1,0.3,0.2c0.8,0.4,1.6,0.8,2.4,1.2c0.2,0.1,0.3,0.2,0.5,0.2c0.8,0.4,1.7,0.7,2.5,1.1c0.1,0,0.2,0.1,0.3,0.1
			c0.8,0.3,1.6,0.6,2.5,0.8c0.1,0,0.3,0.1,0.4,0.1c0.9,0.3,1.8,0.5,2.7,0.7c0.2,0,0.4,0.1,0.6,0.1c0.9,0.2,1.9,0.4,2.9,0.6
			c0.1,0,0.1,0,0.2,0c1,0.2,1.9,0.3,2.9,0.4c0.2,0,0.4,0,0.6,0.1c1,0.1,2,0.2,3.1,0.2c0.2,0,0.4,0,0.6,0c1.1,0,2.2,0.1,3.3,0.1
			c2.3,0,4.5-0.1,6.6-0.3C141.7,424.7,154.9,413.3,161.6,391.9z M147.5,173.9c-0.9,4.8-1.4,7.7-1.5,8.3l0,0
			c-2,11.8-1.6,27.7-0.3,45.4c-24.6,4.7-50.2,2.1-64.9-0.3c14.3-87.1,7.3-146.4,2.1-190.2C82,29.4,81.1,22,80.4,15h94.9
			C167,67.1,152.5,146.7,147.5,173.9z"/>
	</g>
</g>
<g>
	<g>
		<path class="st0" d="M449.6,318.1c-4.6-5.8-10.3-12.3-16.3-19.3c-14.4-16.8-32.4-37.6-47.2-60.3c-17.7-26.9-21.1-61.8-18.7-83.5
			c0.6-5.5-1.2-11-4.9-15.1c-3.7-4.1-8.9-6.3-14.5-6.3l-41.9,0.5c-3.1,0-5.9,1.1-8.1,2.9c-8.3-2.5-18.6-8-34.4-32.5
			c-10.2-13.8-39.4-51.7-68.9-93.8l-4-6.8c-2-3.7-6.5-5-10.2-3.1c-3.7,2-5,6.5-3.1,10.2l2,3.7c29.6,41.4,61.9,83.2,71.5,94.5
			c2.2,3.5,8.5,10.1,11.3,15.3c-2.5,6.8-6.7,17.5-11.8,29.2c-7.9,17.9-15.7,32.1-22.8,42c-8.9-11.9-42.5-55.9-55.9-73.7
			c-2.5-3.3-7.2-4-10.5-1.5s-4,7.2-1.5,10.5c37.3,49.5,78.9,104.3,84.5,111.9c8.4,11.4,32,29.1,70.2,52.6c1.4,2.2,3.2,4.1,5.3,5.6
			l86,62.5c5.6,4.1,12.3,6.2,19,6.2c6,0,12-1.7,17.3-5.1c7.6-4.9,12.7-12.8,14.2-21.7C457.6,334.2,455.2,325.1,449.6,318.1z
			 M237.2,208.4c15-19.2,28.5-50.3,36-69.6c7,6.9,14,10.6,19.9,12.4c0,0.2,0,0.3,0,0.5c0,1.4,0,2.8-0.1,4.2l0,0c0,1.4,0,2.9,0,4.3
			c0,0.3,0,0.5,0,0.8c0,2.9,0.1,5.7,0.1,8.5c0,0.2,0,0.5,0,0.7c0.1,2.8,0.2,5.7,0.3,8.5c0,0.2,0,0.4,0,0.6c0.1,2.8,0.3,5.6,0.5,8.4
			c0,0.2,0,0.4,0,0.6c0.2,2.8,0.4,5.5,0.6,8.2c0,0.2,0,0.3,0,0.5c0.2,1.7,0.3,3.5,0.5,5.2c-7.5,10.6-20.3,24.5-38.9,31.6
			C253.5,230.1,247.3,221.8,237.2,208.4z M268.2,245.6c12.3-5.8,22-13.9,29.6-22c0.3,1.9,0.6,3.8,0.9,5.7c0,0.1,0,0.1,0,0.2
			c0.4,2.5,0.8,4.9,1.2,7.2c0,0.1,0,0.1,0,0.2c0.4,2.4,0.8,4.7,1.2,6.9v0.1c0.2,1.1,0.4,2.2,0.6,3.3l0,0c0.2,1.1,0.4,2.1,0.6,3.2
			v0.1c0.2,1.1,0.4,2.1,0.6,3.1v0.1c0.2,1,0.4,2,0.6,2.9c0,0.1,0,0.1,0,0.2c0.2,1,0.4,1.9,0.6,2.9c0,0.1,0,0.1,0,0.2
			c0.2,0.9,0.4,1.8,0.6,2.7c0,0.1,0,0.1,0,0.2c0.2,0.9,0.4,1.8,0.6,2.6c0,0.1,0,0.2,0.1,0.3c0.2,0.8,0.4,1.6,0.5,2.3
			c0,0.1,0,0.2,0.1,0.2c0.2,0.8,0.4,1.6,0.6,2.4c0,0.1,0.1,0.2,0.1,0.3c0.2,0.7,0.3,1.4,0.5,2c0,0.1,0,0.1,0,0.2
			C290.6,262.5,277.3,253.1,268.2,245.6z M441.3,340.6c-0.8,4.8-3.4,8.8-7.5,11.5c-5.9,3.8-13.5,3.5-19.2-0.6L328.5,289
			c-0.8-0.6-1.4-1.3-1.8-2.1l0,0c-0.1-0.1-0.1-0.2-0.1-0.3c-0.1-0.2-0.1-0.3-0.2-0.5c-1.6-5.2-4.2-14.7-7.1-27.5c0,0,0,0,0-0.1
			c-0.1-0.6-0.3-1.2-0.4-1.8c0,0,0,0,0-0.1c-0.1-0.6-0.3-1.2-0.4-1.8v-0.1c-0.1-0.6-0.3-1.2-0.4-1.8c0-0.1,0-0.1,0-0.1
			c-0.1-0.6-0.2-1.2-0.4-1.8c0-0.1,0-0.1,0-0.2c-0.1-0.6-0.2-1.2-0.4-1.8c0-0.1,0-0.2-0.1-0.3c-0.1-0.6-0.2-1.2-0.3-1.8
			c0-0.1,0-0.2-0.1-0.3c-0.1-0.6-0.2-1.2-0.3-1.8c0-0.1,0-0.2-0.1-0.4c-0.1-0.6-0.2-1.2-0.3-1.8c0-0.1,0-0.2-0.1-0.3
			c-0.1-0.6-0.2-1.2-0.3-1.8c0-0.1,0-0.2-0.1-0.3c-0.1-0.6-0.2-1.2-0.3-1.9c0-0.1,0-0.2-0.1-0.4c-0.1-0.6-0.2-1.2-0.3-1.8
			c0-0.1,0-0.3-0.1-0.4c-0.1-0.6-0.2-1.2-0.3-1.8c0-0.2-0.1-0.3-0.1-0.5c-0.1-0.6-0.2-1.2-0.3-1.9c0-0.2-0.1-0.3-0.1-0.5
			c-0.1-0.6-0.2-1.2-0.3-1.9c0-0.2-0.1-0.3-0.1-0.5c-0.1-0.6-0.2-1.3-0.3-1.9c0-0.2-0.1-0.3-0.1-0.5c-0.1-0.6-0.2-1.3-0.3-1.9
			c0-0.2-0.1-0.4-0.1-0.6c-0.1-0.6-0.2-1.2-0.3-1.9c0-0.2-0.1-0.4-0.1-0.6c-0.1-0.6-0.2-1.2-0.3-1.9c0-0.2-0.1-0.4-0.1-0.6
			c-0.1-0.6-0.2-1.3-0.3-1.9c0-0.2-0.1-0.4-0.1-0.6c-0.1-0.6-0.2-1.3-0.2-1.9c0-0.2-0.1-0.4-0.1-0.6c-0.1-0.6-0.2-1.3-0.2-1.9
			c0-0.2-0.1-0.5-0.1-0.7c-0.1-0.6-0.2-1.3-0.2-1.9c0-0.2-0.1-0.5-0.1-0.7c-0.1-0.6-0.1-1.3-0.2-1.9c0-0.2-0.1-0.5-0.1-0.7
			c-0.1-0.6-0.1-1.3-0.2-1.9c0-0.2-0.1-0.5-0.1-0.7c-0.1-0.6-0.1-1.3-0.2-1.9c0-0.2,0-0.5-0.1-0.7c-0.1-0.6-0.1-1.3-0.2-2
			c0-0.3,0-0.5-0.1-0.8c-0.1-0.6-0.1-1.3-0.2-2c0-0.3,0-0.5-0.1-0.8c-0.1-0.6-0.1-1.3-0.2-1.9c0-0.3,0-0.6-0.1-0.8
			c-0.1-0.6-0.1-1.3-0.1-1.9c0-0.3,0-0.6-0.1-0.9c0-0.6-0.1-1.3-0.1-1.9c0-0.3,0-0.6-0.1-0.9c0-0.6-0.1-1.3-0.1-1.9
			c0-0.3,0-0.6-0.1-0.9c0-0.6-0.1-1.3-0.1-1.9c0-0.3,0-0.6-0.1-1c0-0.6-0.1-1.3-0.1-1.9c0-0.3,0-0.7,0-1c0-0.6-0.1-1.3-0.1-1.9
			c0-0.3,0-0.7,0-1c0-0.6,0-1.2-0.1-1.9c0-0.4,0-0.7,0-1.1c0-0.6,0-1.2-0.1-1.9c0-0.4,0-0.7,0-1.1c0-0.6,0-1.2,0-1.8
			c0-0.4,0-0.8,0-1.1c0-0.6,0-1.2,0-1.8c0-0.4,0-0.8,0-1.2c0-0.6,0-1.2,0-1.8c0-0.4,0-0.8,0-1.2c0-0.6,0-1.2,0-1.8
			c0-0.4,0-0.8,0-1.3c0-0.6,0-1.1,0-1.7c0-0.4,0-0.9,0-1.3c0-0.6,0-1.1,0-1.7c0-0.5,0-0.9,0-1.4c0-0.6,0-1.1,0-1.7
			c0-0.2,0-0.5,0-0.7l40-0.5c0,0,0,0,0.1,0c1.6,0,2.6,0.9,3.1,1.4s1.3,1.7,1.1,3.4c-2.8,25.3,1.3,63.1,21.1,93.4
			c15.4,23.5,33.7,44.7,48.4,61.8c5.9,6.9,11.5,13.4,16,18.9C440.9,331.2,442.1,335.9,441.3,340.6z"/>
	</g>
</g>
</svg>
