<?xml version="1.0" encoding="utf-8"?>
<!-- Generator: Adobe Illustrator 24.0.3, SVG Export Plug-In . SVG Version: 6.00 Build 0)  -->
<svg version="1.1" id="Capa_1" xmlns="http://www.w3.org/2000/svg" xmlns:xlink="http://www.w3.org/1999/xlink" x="0px" y="0px"
	 viewBox="0 0 24 24" style="enable-background:new 0 0 24 24;" xml:space="preserve">
<g>
	<g>
		<path d="M19.4,21l-2.1-3.3c-0.1-0.2-0.4-0.3-0.6-0.1c-0.2,0.1-0.3,0.4-0.1,0.6l1,1.6l-0.9,0.6c-2.2-2.8-5.6-7.2-5.6-7.2
			C11,13.1,10.9,13,10.8,13c-0.1,0-0.2,0-0.3,0.1l-2.7,2.2c-0.1,0.1-0.2,0.3-0.1,0.5l1.3,3.5l-1.1,0.5l-1.4-2.9
			c-0.4-0.8-0.3-1.8,0.3-2.5l2.7-3.1l2.7-0.5c0.8,0.3,1.6,1.2,1.5,2.5c0,0.1,0,0.2,0.1,0.3l3.3,5.3c0.1,0.2,0.4,0.3,0.6,0.1
			c0.2-0.1,0.3-0.4,0.1-0.6l-3.2-5.1c0-1.5-0.9-2.7-1.9-3.2l0-1.7c0.2-0.2,0.4-0.5,0.5-0.8C13.2,7.3,13.1,7,13,6.7
			c0.2,0.1,0.4,0.1,0.5,0.1c1,0,1.8-0.8,1.8-1.8c0-0.5-0.2-1-0.5-1.3h3.1c0.7,0,1.3-0.6,1.3-1.3S18.7,1,17.9,1h-3.7
			C13,1,11.8,1.5,11,2.4L8.9,4.6C8.6,4.8,8.4,5,8.3,5.3C8.1,5.6,8,5.8,8,6.1L6.1,5.5C5.4,5.3,4.7,5.6,4.5,6.3C4.4,6.7,4.4,7,4.5,7.4
			C4.7,7.7,5,7.9,5.3,8c0,0,2.2,0.8,2.2,0.8C7.8,8.9,8.1,9,8.4,9.1l0.3,1.8l-2.6,3c-0.8,1-1,2.3-0.4,3.4l2.5,5
			C8.3,22.7,8.8,23,9.3,23c0.2,0,0.3,0,0.5-0.1c0.7-0.3,1-1,0.8-1.7l-2-5.4l2.1-1.7c1.1,1.4,5.2,6.6,6.6,8.4
			c0.4,0.5,1.2,0.7,1.8,0.3l0,0C19.6,22.4,19.8,21.6,19.4,21L19.4,21z M8.9,6.3c0-0.2,0-0.4,0.1-0.6c0.2-0.4,0.6-0.6,1-0.6h0l1.7,0
			c0,0.2,0.1,0.5,0.2,0.7c-0.3-0.1-0.7,0-1,0.2c-0.2,0.1-0.4,0.2-0.6,0.2C9.9,6.3,9.4,6.4,8.9,6.3L8.9,6.3z M13.6,5.9
			c-0.5,0-1-0.4-1-1s0.4-1,1-1c0.5,0,1,0.4,1,1S14.1,5.9,13.6,5.9z M11.6,3c0.7-0.7,1.7-1.1,2.7-1.1h3.7c0.3,0,0.5,0.2,0.5,0.5
			s-0.2,0.5-0.5,0.5H14c-0.5,0-1,0.2-1.3,0.6c-0.4,0.2-0.6,0.5-0.8,0.9l-1.4,0L11.6,3z M5.6,7.2C5.6,7.2,5.6,7.2,5.6,7.2
			C5.5,7.2,5.4,7.1,5.3,7c-0.1-0.1-0.1-0.2,0-0.4c0.1-0.2,0.3-0.4,0.6-0.3L7.9,7c0.9,0.3,1.8,0.3,2.7,0c0.2-0.1,0.5-0.2,0.7-0.3
			c0.3-0.2,0.7-0.1,0.8,0.2v0c0.1,0.1,0.1,0.3,0.1,0.5c0,0.2-0.2,0.3-0.3,0.4c-0.8,0.4-1.6,0.6-2.5,0.6C8.9,8.3,8.3,8.2,7.8,8
			L5.6,7.2z M9.4,9.2c0.1,0,0.2,0,0.3,0c0.7,0,1.4-0.1,2-0.4l0,1.2l-2.3,0.4L9.3,9.2C9.3,9.2,9.3,9.2,9.4,9.2L9.4,9.2z M9.5,22.1
			c-0.2,0.1-0.5,0-0.6-0.2l-0.7-1.3l1-0.5l0.5,1.4C9.8,21.8,9.7,22,9.5,22.1L9.5,22.1z M18.6,22L18.6,22c-0.2,0.1-0.5,0.1-0.6-0.1
			c-0.2-0.2-0.4-0.6-0.7-0.9l0.8-0.5l0.6,1C18.8,21.7,18.7,21.9,18.6,22L18.6,22z"/>
	</g>
</g>
</svg>
