<?xml version="1.0" encoding="utf-8"?>
<!-- Generator: Adobe Illustrator 24.0.3, SVG Export Plug-In . SVG Version: 6.00 Build 0)  -->
<svg version="1.1" id="Capa_1" xmlns="http://www.w3.org/2000/svg" xmlns:xlink="http://www.w3.org/1999/xlink" x="0px" y="0px"
	 viewBox="0 0 24 24" style="enable-background:new 0 0 24 24;" xml:space="preserve">
<style type="text/css">
	.st0{fill:#FFFFFF;}
</style>
<g>
	<g>
		<path class="st0" d="M22.5,8.9C22.5,8.9,22.5,8.8,22.5,8.9c0-0.1,0-0.2-0.1-0.2c0-0.1,0-0.1,0-0.2c0,0,0,0,0-0.1l0,0
			c0-0.1,0-0.1-0.1-0.2c0,0,0,0,0-0.1c0-0.1,0-0.1-0.1-0.2c0,0,0,0,0-0.1s-0.1-0.1-0.1-0.2c0,0,0,0,0-0.1c0,0,0-0.1-0.1-0.1V7.3V7.2
			C20.9,5,19.2,3.1,16.9,2c-1.4-0.6-2.9-0.9-4.5-1l0,0c-0.1,0-0.1,0-0.2,0h-0.1H12c-2,0-4,0.6-5.7,1.6C5.6,3,5,3.5,4.4,4l0,0
			L4.3,4.1l0,0L4.2,4.2l0,0C3.8,4.7,3.3,5.2,3,5.7l0,0c0,0.1-0.1,0.1-0.1,0.2l0,0C2.7,6.1,2.6,6.2,2.5,6.4c0,0,0,0,0,0.1
			c0,0,0,0.1-0.1,0.1c0,0,0,0.1-0.1,0.1v0.1c0,0,0,0.1-0.1,0.1c0,0,0,0,0,0.1S2.1,7.1,2.1,7.2l0,0l0,0C2.1,7.3,2,7.4,2,7.5
			c0,0,0,0,0,0.1S1.9,7.7,1.9,7.8c0,0,0,0,0,0.1S1.8,8.1,1.8,8.1l0,0c-0.9,2.3-1,4.8-0.3,7.1c0,0,0,0,0,0.1v0.1c0,0.1,0,0.1,0.1,0.2
			c0,0,0,0,0,0.1l0,0c0,0.1,0,0.1,0.1,0.2c0,0,0,0,0,0.1s0,0.1,0.1,0.2c0,0,0,0,0,0.1s0.1,0.1,0.1,0.2c0,0,0,0,0,0.1
			c0,0,0,0.1,0.1,0.1v0.1v0.1c1.1,2.2,2.8,4.1,5.1,5.2c1.5,0.7,3,1.1,4.6,1.1h0.1h0.1c2,0,4-0.6,5.7-1.6c0.7-0.4,1.3-0.9,1.8-1.4
			l0,0l0.1-0.1l0,0l0.1-0.1l0,0c0.5-0.5,0.9-1.1,1.3-1.6l0,0c0.1-0.1,0.2-0.3,0.3-0.4c0,0,0,0,0-0.1c0,0,0-0.1,0.1-0.1
			c0,0,0-0.1,0.1-0.1v-0.1c0,0,0-0.1,0.1-0.1c0,0,0,0,0-0.1s0.1-0.1,0.1-0.2l0,0l0,0c0-0.1,0.1-0.2,0.1-0.3c0,0,0,0,0-0.1
			s0.1-0.1,0.1-0.2c0,0,0,0,0-0.1s0.1-0.2,0.1-0.2l0,0C23.1,13.7,23.2,11.2,22.5,8.9z M21.1,7.5L21.1,7.5c0,0.1,0,0.1,0.1,0.1v0.1
			v0.1c0,0.1,0.1,0.1,0.1,0.2c0,0,0,0,0,0.1c0,0.1,0,0.1,0.1,0.2c0,0,0,0,0,0.1s0.1,0.1,0.1,0.2c0,0,0,0,0,0.1s0,0.1,0.1,0.2V9
			c0,0.1,0,0.1,0.1,0.2c0,0.1,0,0.1,0,0.2c0,0,0,0,0,0.1s0.1,0.2,0.1,0.3l-1.2,2.1h-3.9l-2-3.4l2-3.4h2.4
			C19.9,5.6,20.6,6.5,21.1,7.5z M15.9,12l-2,3.4H10L8,12l2-3.4h4L15.9,12z M16.5,2.9c0.6,0.3,1.1,0.6,1.6,1h-1.4L16,2.7
			C16.1,2.7,16.3,2.8,16.5,2.9z M9.3,2.2C10.2,2,11.1,1.9,12,1.9h0.1c0,0,0,0,0.1,0c0.8,0,1.7,0.1,2.5,0.4l1.2,2.1l-2,3.4H10L8,4.4
			L9.3,2.2z M8.1,2.7L7.3,3.9H5.9C6.5,3.4,7.3,3,8.1,2.7z M2.3,9.2L2.3,9.2C2.3,9.1,2.4,9,2.4,9V8.9V8.8c0-0.1,0-0.1,0.1-0.2l0,0
			c0.1-0.3,0.3-0.6,0.4-1C2.9,7.4,3,7.4,3,7.3l0,0c0,0,0-0.1,0.1-0.1c0,0,0,0,0-0.1c0,0,0-0.1,0.1-0.1l0,0c0-0.1,0.1-0.1,0.1-0.2
			l0,0c0.4-0.7,1-1.4,1.6-2h2.4l2,3.4l-2,3.4H3.4L2.2,9.5C2.2,9.4,2.2,9.3,2.3,9.2z M1.9,13.2c-0.1-0.8-0.1-1.6,0-2.5L2.7,12
			L1.9,13.2z M2.2,14.5l1.2-2.1h3.9l2,3.4l-2,3.4H4.9C3.6,17.9,2.6,16.3,2.2,14.5z M7.5,21.1c-0.6-0.3-1.1-0.6-1.6-1h1.4L8,21.3
			C7.9,21.3,7.7,21.2,7.5,21.1z M14.7,21.8c-0.9,0.2-1.8,0.4-2.7,0.4h-0.1c0,0,0,0-0.1,0c-0.8,0-1.7-0.1-2.5-0.4l-1.2-2.1l2-3.4H14
			l2,3.4L14.7,21.8z M15.9,21.3l0.7-1.3H18C17.5,20.6,16.7,21,15.9,21.3z M21.2,16.2C21.2,16.2,21.2,16.3,21.2,16.2
			c0,0.1-0.1,0.2-0.1,0.3c0,0.1-0.1,0.1-0.1,0.2c0,0,0,0,0,0.1c0,0,0,0.1-0.1,0.1c0,0,0,0,0,0.1c0,0,0,0.1-0.1,0.1l0,0
			c0,0.1-0.1,0.1-0.1,0.2l0,0c-0.4,0.7-1,1.4-1.6,2h-2.4l-2-3.4l2-3.4h3.9l1.2,2.1C21.7,15.1,21.5,15.7,21.2,16.2z M22.1,13.2
			L21.3,12l0.7-1.2C22.2,11.6,22.2,12.4,22.1,13.2z"/>
	</g>
</g>
</svg>
