<?xml version="1.0" encoding="UTF-8"?>
<svg width="11px" height="14px" viewBox="0 0 11 14" version="1.1" xmlns="http://www.w3.org/2000/svg" xmlns:xlink="http://www.w3.org/1999/xlink">
    <title>Shape</title>
    <g id="Coaching" stroke="none" stroke-width="1" fill="none" fill-rule="evenodd">
        <g id="Home" transform="translate(-30.000000, -837.000000)" fill="#FFFFFF" fill-rule="nonzero">
            <g id="Card-1-Copy-10" transform="translate(16.000000, 827.000000)">
                <g id="Hot" transform="translate(8.000000, 8.000000)">
                    <g id="whatshot_black_24dp" transform="translate(4.000000, 2.000000)">
                        <path d="M7.204375,8.19784341 C6.269375,8.38162213 5.7125,8.95921238 5.7125,9.77965307 C5.7125,10.6591655 6.475625,11.3680263 7.424375,11.3680263 C8.83375,11.3680263 9.975,10.278481 9.975,8.93295827 C9.975,8.23066104 9.871875,7.54149086 9.65875,6.8851383 C9.115625,7.58743554 8.14625,8.0140647 7.204375,8.19784341 Z M8.53125,0 C8.53125,0 9.04,1.73933427 9.04,3.15049226 C9.04,4.50257853 8.111875,5.59868729 6.695625,5.59868729 C5.2725,5.59868729 4.2,4.50257853 4.2,3.15049226 L4.220625,2.91420534 C2.831875,4.48945148 2,6.53070792 2,8.74917956 C2,11.6502579 4.46125,14 7.5,14 C10.53875,14 13,11.6502579 13,8.74917956 C13,5.21143929 11.219375,2.0543835 8.53125,0 Z M7.5,12.6872949 C5.224375,12.6872949 3.375,10.9217065 3.375,8.74917956 C3.375,7.74496015 3.58125,6.75386779 3.96625,5.84153774 C4.660625,6.50445382 5.623125,6.91139241 6.695625,6.91139241 C8.524375,6.91139241 9.96125,5.71026723 10.325625,4.00375059 C11.17125,5.44772621 11.625,7.06891702 11.625,8.74917956 C11.625,10.9217065 9.775625,12.6872949 7.5,12.6872949 Z" id="Shape"></path>
                    </g>
                </g>
            </g>
        </g>
    </g>
</svg>