<?xml version="1.0" encoding="UTF-8"?>
<svg width="16px" height="12px" viewBox="0 0 16 12" version="1.1" xmlns="http://www.w3.org/2000/svg" xmlns:xlink="http://www.w3.org/1999/xlink">
    <title>Shape</title>
    <g id="Coaching" stroke="none" stroke-width="1" fill="none" fill-rule="evenodd">
        <g id="Course--Page---3" transform="translate(-15.000000, -1061.000000)" fill="#757575" fill-rule="nonzero">
            <g id="Includes-Copy" transform="translate(14.000000, 988.000000)">
                <g id="email_black_24dp" transform="translate(0.000000, 70.000000)">
                    <path d="M16.5,4.5 C16.5,3.675 15.825,3 15,3 L3,3 C2.175,3 1.5,3.675 1.5,4.5 L1.5,13.5 C1.5,14.325 2.175,15 3,15 L15,15 C15.825,15 16.5,14.325 16.5,13.5 L16.5,4.5 Z M15,4.5 L9,8.25 L3,4.5 L15,4.5 Z M15,13.5 L3,13.5 L3,6 L9,9.75 L15,6 L15,13.5 Z" id="Shape"></path>
                </g>
            </g>
        </g>
    </g>
</svg>