<?xml version="1.0" encoding="utf-8"?>
<!-- Generator: Adobe Illustrator 24.0.3, SVG Export Plug-In . SVG Version: 6.00 Build 0)  -->
<svg version="1.1" id="Capa_1" xmlns="http://www.w3.org/2000/svg" xmlns:xlink="http://www.w3.org/1999/xlink" x="0px" y="0px"
	 viewBox="0 0 24 24" style="enable-background:new 0 0 24 24;" xml:space="preserve">
<style type="text/css">
	.st0{fill:#FFFFFF;}
</style>
<g>
	<g>
		<path class="st0" d="M22.9,19.5c-0.1-0.3-0.4-0.6-0.7-0.8l0,0l-1.8-0.8l0.1-0.1c0.1-0.2,0-0.4-0.2-0.5L13.9,14
			c-0.2-0.1-0.5,0-0.6,0.2s0,0.5,0.2,0.6l6.1,3l-0.8,1.9l-8.3-3.9c-0.1,0-0.1,0-0.2,0H6.2H6.1l-0.3-1.2c-0.1-0.2-0.3-0.4-0.5-0.3
			c-0.2,0.1-0.4,0.3-0.3,0.5l0.7,2.5H3.4l-0.6-4.1c-0.1-0.3,0.1-0.7,0.3-1C3.3,12,3.6,11.8,4,11.8c0.2,0,0.4,0,0.5,0.1l3,1.5l0,0
			c0.1,0,0.1,0,0.2,0h3.1l3.1,1.5c0.1,0,0.1,0,0.2,0c0.2,0,0.3-0.1,0.4-0.2c0.1-0.2,0-0.5-0.2-0.6l-2.7-1.3l1-1.3h4.8
			c0.3,0,0.6-0.1,0.8-0.2l2.5-1.5c0.1-0.1,0.2-0.2,0.2-0.3c0.2-0.1,0.4-0.2,0.5-0.3l0.3-0.3c0.5-0.5,0.5-1.3,0-1.8l-0.6-0.6
			c-0.5-0.5-1.3-0.5-1.8,0L19,6.8c-0.2,0.2-0.3,0.3-0.3,0.5c0,0,0,0-0.1,0l-2.3,1.2L12.4,8c0.3-0.3,0.5-0.6,0.6-1l0.1-0.3
			c0.4-1.2-0.3-2.5-1.5-2.9C11,3.6,10.4,3.7,9.8,4C9.4,4.4,9,4.9,8.8,5.4L8.7,5.8C8.5,6.4,8.6,7,8.9,7.5L5.6,7l1-0.8
			c0-0.1,0.1-0.2,0.1-0.3c0.2,0,0.3-0.1,0.5-0.3l0.3-0.3C8,4.8,8,4,7.5,3.5L6.9,3C6.5,2.5,5.7,2.5,5.2,3L4.8,3.3
			C4.7,3.5,4.6,3.6,4.5,3.8c-0.1,0-0.2,0-0.2,0.1L1.9,6.1C1.5,6.5,1.3,7,1.4,7.6s0.4,1,1,1.3l4.4,2l0.3,1.4l-2.2-1.1
			C4.6,11,4.3,11,4,11c-0.6,0-1.2,0.3-1.6,0.7c-0.4,0.4-0.5,1-0.4,1.6l0.6,4.5c0,0.1,0.1,0.2,0.1,0.2c-1,0.3-1.7,1.1-1.7,2.2
			c0,0.2,0.2,0.4,0.4,0.4h4.3c0.2,0,0.4-0.2,0.4-0.4c0-0.2,0-0.3,0-0.4c0,0,0-0.2,0-0.3v-1.4l0,0c0.1,0,0.3-0.1,0.3-0.2
			c0.1-0.1,0.1-0.2,0.1-0.4l-0.3-1h3.9l8.7,4c0.1,0,0.1,0,0.2,0s0.1,0,0.2,0s0.1-0.1,0.2-0.1l1.6,0.8c0.2,0.1,0.4,0.1,0.6,0.1
			c0.5,0,1-0.3,1.2-0.8l0.1-0.1C23,20.2,23,19.8,22.9,19.5z M19.7,7.5L20,7.2c0.1-0.1,0.2-0.1,0.3-0.1c0.1,0,0.2,0,0.3,0.1l0.6,0.6
			c0.2,0.2,0.2,0.4,0,0.5l-0.3,0.3c-0.1,0.1-0.2,0.1-0.3,0.1s-0.2,0-0.3-0.1L19.7,8C19.6,7.9,19.6,7.7,19.7,7.5z M16.4,9.5
			c0.1,0,0.2,0,0.3,0l2.1-1.1l1,1l-2,1.3c-0.1,0.1-0.2,0.1-0.3,0.1h-5c-0.1,0-0.3,0.1-0.3,0.2l-0.9,1.2l-0.5-1.6l1.1-1.7L16.4,9.5z
			 M10.2,9.5l-0.3-1c0.1,0.1,0.2,0.1,0.4,0.1s0.3,0.1,0.5,0.1L10.2,9.5z M9.5,6l0.1-0.3C9.8,5.3,10,5,10.3,4.8
			c0.2-0.1,0.4-0.2,0.7-0.2c0.1,0,0.3,0,0.4,0.1c0.8,0.2,1.2,1,1,1.8l-0.1,0.3c-0.1,0.4-0.4,0.7-0.7,0.9c-0.3,0.2-0.7,0.2-1.1,0.1
			C9.7,7.6,9.3,6.8,9.5,6z M5.4,3.9l0.3-0.3C5.9,3.5,6,3.5,6.1,3.5s0.2,0,0.3,0.1L7,4.2c0.2,0.2,0.2,0.4,0,0.5L6.6,5
			C6.4,5.2,6.2,5.2,6,5L5.4,4.4C5.3,4.3,5.3,4.1,5.4,3.9z M6.7,8.7C6.4,8.7,6.3,9,6.3,9.2l0.1,0.6L2.7,8.1C2.5,7.9,2.3,7.7,2.3,7.4
			c0-0.3,0.1-0.5,0.3-0.7l2.1-1.9l1,1L4.3,6.9C4.2,7,4.1,7.2,4.2,7.4c0,0.2,0.2,0.3,0.3,0.3l4.4,0.7l1.4,4.3H8L7.2,9
			C7.1,8.8,6.9,8.6,6.7,8.7z M5.3,19.5L5.3,19.5c0,0.1-0.1,0.3-0.3,0.3H1.9c0.2-0.6,0.7-1,1.3-1c0.2,0,0.4-0.2,0.4-0.4
			c0-0.1,0-0.2-0.1-0.2h1.6L5.3,19.5L5.3,19.5z M22.1,20.1L22,20.3c-0.1,0.3-0.4,0.4-0.7,0.2l-1.6-0.8L20,19l0.2-0.4l1.7,0.8l0,0
			c0.1,0.1,0.2,0.2,0.3,0.3C22.2,19.9,22.1,20,22.1,20.1z"/>
	</g>
</g>
</svg>
