<?xml version="1.0" encoding="utf-8"?>
<!-- Generator: Adobe Illustrator 24.0.3, SVG Export Plug-In . SVG Version: 6.00 Build 0)  -->
<svg version="1.1" id="Capa_1" xmlns="http://www.w3.org/2000/svg" xmlns:xlink="http://www.w3.org/1999/xlink" x="0px" y="0px"
	 viewBox="0 0 24 24" style="enable-background:new 0 0 24 24;" xml:space="preserve">
<path d="M21.5,7.8l-1.9-1.3c0.6-0.3,1.1-0.8,1.3-1.5L21,4.4c0.2-0.6,0.1-1.2-0.2-1.8S20,1.7,19.4,1.6l-0.2-0.1
	c-1.2-0.3-2.5,0.4-2.8,1.6l-0.2,0.6c-0.1,0.3-0.1,0.7,0,1l-3.3-0.4c0,0-0.1,0-0.1,0l-2.3-1.2c0-0.3-0.2-0.6-0.5-0.9L9.4,1.9
	C8.8,1.5,8.1,1.6,7.6,2.2L7.1,3C6.9,3.2,6.8,3.6,6.8,3.9c0.1,0.3,0.2,0.6,0.5,0.8l0.5,0.4c0.2,0.2,0.5,0.2,0.7,0.2
	c0,0,0.1,0.1,0.1,0.1L12,7.4c0,0,0.1,0,0.1,0L14.7,8l-1.4,1.4L6.1,4.7c-0.2-0.1-0.4-0.1-0.5,0L4.8,4.1l0,0C5.1,3.6,5.2,3,5.1,2.5
	C5,1.9,4.7,1.4,4.2,1.1C4,0.9,3.7,1,3.6,1.2L1.7,4.1C1.5,4.3,1.4,4.6,1.5,4.9C1.5,5.2,1.7,5.4,2,5.6L4.1,7C4,7.2,4,7.4,4.2,7.5
	l7,4.8l2,2.4c0,0,0,0,0,0l2.1,2.3L11.6,18c0,0-0.6,0-0.6,0l0.3,0.9v1.2c0,0.2,0.2,0.4,0.4,0.4h6c0.5,0,1-0.2,1.4-0.5
	c0.9-0.7,1.1-2,0.5-3l-0.3-0.4c-0.1-0.2-0.4-0.3-0.6-0.1c-0.2,0.1-0.3,0.4-0.1,0.6l0.3,0.4c0.4,0.6,0.3,1.4-0.3,1.8
	c-0.2,0.2-0.6,0.3-0.9,0.3h-5.6v-0.9l4.1-1.2c0.1,0,0.3-0.2,0.3-0.3c0-0.1,0-0.3-0.1-0.4l-2.5-2.8l-2.1-2.4c0,0-0.1-0.1-0.1-0.1
	L5,7.1L6,5.6l7.2,4.6l3,3.2l2.5,3.9c0.1,0.2,0.4,0.3,0.6,0.1c0.2-0.1,0.3-0.4,0.1-0.6l-2.4-3.7l1.3-1.3l1.3,1.3
	c0.3,0.3,0.7,0.5,1.2,0.5c0.9,0,1.7-0.8,1.7-1.7V9.7C22.5,8.9,22.1,8.2,21.5,7.8z M4.5,6.3L2.4,4.9c-0.1,0-0.1-0.1-0.1-0.1
	c0-0.1,0-0.1,0-0.2L4,2.1c0.1,0.2,0.2,0.4,0.3,0.6c0.1,0.4,0,0.7-0.2,1c0,0,0,0,0,0L3.8,4C3.7,4.2,3.8,4.5,4,4.6l1.1,0.8L4.5,6.3z
	 M17,3.9l0.2-0.6c0.2-0.7,0.8-1.1,1.4-1.1c0.1,0,0.3,0,0.4,0l0.2,0.1c0.8,0.2,1.2,1,1,1.8L20,4.8c-0.2,0.8-1,1.2-1.8,1L18,5.7
	c-0.4-0.1-0.7-0.3-0.9-0.7C16.9,4.7,16.9,4.3,17,3.9z M8.9,4.3C8.8,4.5,8.5,4.5,8.3,4.4L7.8,4C7.8,4,7.7,3.9,7.7,3.8
	c0-0.1,0-0.2,0.1-0.3l0.6-0.8c0.1-0.1,0.2-0.2,0.3-0.2c0.1,0,0.2,0,0.2,0.1L9.4,3c0.2,0.1,0.2,0.4,0.1,0.5L8.9,4.3z M18.3,9.6
	l-0.5,0.6c-0.1,0.1-0.2,0.1-0.3,0.2c-0.1,0-0.2,0-0.3-0.1L16.9,10c0,0,0,0,0,0c-0.1-0.1-0.1-0.2-0.2-0.3c0-0.1,0-0.2,0.1-0.3
	l0.5-0.6c0.1-0.1,0.2-0.1,0.3-0.2c0,0,0,0,0.1,0c0.1,0,0.2,0,0.2,0.1l0.4,0.3C18.4,9.2,18.4,9.4,18.3,9.6z M21.7,12L21.7,12
	c0,0.5-0.4,0.8-0.8,0.8c-0.2,0-0.4-0.1-0.6-0.2l-1.8-1.8c0,0,0-0.1,0.1-0.1l0.4-0.5l1.1,0.7c0.1,0,0.2,0.1,0.2,0.1
	c0.1,0,0.3-0.1,0.4-0.2c0.1-0.2,0.1-0.5-0.1-0.6l-1.3-0.9c0-0.4-0.2-0.7-0.5-1l-0.4-0.3c-0.3-0.2-0.6-0.3-0.9-0.2
	c-0.3,0.1-0.6,0.2-0.8,0.5L16.1,9c-0.2,0.3-0.3,0.6-0.2,0.9c0.1,0.3,0.2,0.6,0.5,0.8l0.4,0.3c0.2,0.2,0.5,0.2,0.7,0.2
	c0,0,0.1,0,0.1,0l0.1,0.1l-1.2,1.2L14,9.9l2.1-2.1c0.2-0.2,0.2-0.4,0-0.6C16,7,15.7,7,15.6,7.1l-0.1,0.1l-3.1-0.7L9.5,4.9L10.2,4
	l2.2,1.1c0.1,0.1,0.2,0.1,0.4,0.1L16,5.6l0.9,0.5c0.2,0.2,0.5,0.3,0.8,0.4L18,6.6c0.1,0,0.2,0,0.3,0.1c0,0,0,0,0,0L21,8.5
	c0.4,0.3,0.6,0.7,0.6,1.2L21.7,12L21.7,12z M12.1,19.7l-1.4,0c-0.2,0-0.4,0.2-0.4,0.4l0,0.4c0,0,0,0,0,0c0,0.4-0.2,0.9-0.4,1.2
	c-0.1,0.1-0.3,0.3-0.5,0.3l0-3c0-0.1,0-0.1,0.1-0.2c0,0,0.1-0.1,0.2-0.1l2.5,0l0-0.9l-2.5,0c-0.3,0-0.6,0.1-0.8,0.3
	c-0.2,0.2-0.3,0.5-0.3,0.8l0,3.5C8.5,22.8,8.7,23,9,23c0.6,0,1.1-0.2,1.6-0.7c0.4-0.4,0.7-1.2,0.7-1.8l0,0l1,0L12.1,19.7z"/>
</svg>
