<?xml version="1.0" encoding="utf-8"?>
<!-- Generator: Adobe Illustrator 24.0.3, SVG Export Plug-In . SVG Version: 6.00 Build 0)  -->
<svg version="1.1" id="Layer_1" xmlns="http://www.w3.org/2000/svg" xmlns:xlink="http://www.w3.org/1999/xlink" x="0px" y="0px"
	 viewBox="0 0 24 24" style="enable-background:new 0 0 24 24;" xml:space="preserve">
<style type="text/css">
	.st0{fill:#FFFFFF;}
</style>
<path class="st0" d="M22.6,22.1h-2.1c0.2-0.2,0.4-0.5,0.5-0.9c0.3-0.7,0.3-1.5,0-2.2c0-0.1-0.1-0.2-0.1-0.3c0.1,0,0.2-0.1,0.3-0.1
	c0.6-0.3,0.9-0.8,0.9-1.5c0-0.1-0.1-0.2-0.1-0.3L18.7,14l-1.2-3.7C17,8.8,15.6,7.7,14,7.5c0.5-0.5,0.8-1.1,0.8-1.9V5.2
	c0-0.8-0.4-1.6-1-2.1l0,0V2.7c0-1-0.8-1.7-1.7-1.7s-1.7,0.8-1.7,1.7v0.4l0,0c-0.6,0.5-1,1.2-1,2.1v0.6c0,0.7,0.3,1.4,0.8,1.9
	C8.6,7.9,7.3,9,6.7,10.5l-1.2,3.7L2,16.9c0,0.1-0.1,0.2-0.1,0.4c0,0.6,0.4,1.2,0.9,1.5c0.1,0.1,0.2,0.1,0.3,0.1c0,0,0,0.1-0.1,0.2
	c-0.3,0.7-0.3,1.5,0,2.2c0.1,0.3,0.3,0.6,0.5,0.9H1.4c-0.2,0-0.4,0.2-0.4,0.4S1.2,23,1.4,23h21.1c0.2,0,0.4-0.2,0.4-0.4
	C23,22.3,22.8,22.1,22.6,22.1z M15.3,14.2l0.2,0.4c0.3,0.7,0.7,1.3,1.3,1.7l0.8,0.7l-2.3-0.8C15.3,16.2,15.3,14.2,15.3,14.2z
	 M12,1.9c0.4,0,0.8,0.3,0.9,0.8c-0.3-0.1-0.6-0.1-0.9-0.1c-0.3,0-0.6,0.1-0.9,0.1C11.2,2.2,11.5,1.9,12,1.9z M10.1,5.2
	c0-1,0.8-1.8,1.8-1.8s1.8,0.8,1.8,1.8v0.6c0,1-0.8,1.8-1.8,1.8s-1.8-0.8-1.8-1.8V5.2z M2.8,17.4L6,14.7c0.1-0.1,0.1-0.1,0.1-0.2
	l1.3-3.8c0.4-1.3,1.7-2.2,3.1-2.2h2.9c1.4,0,2.7,0.9,3.1,2.2l1.3,3.8c0,0.1,0.1,0.1,0.1,0.2l3.2,2.8c-0.1,0.2-0.2,0.4-0.4,0.5
	c-0.3,0.1-0.6,0.1-0.8-0.1l-2.7-2.2c-0.5-0.4-0.8-0.8-1-1.4l-1-2.3v-1.1c0-0.2-0.2-0.4-0.4-0.4s-0.4,0.2-0.4,0.4V16H9.6v-4l0,0v-1.2
	c0-0.2-0.2-0.4-0.4-0.4s-0.4,0.2-0.4,0.4V12l-1,2.3c-0.2,0.5-0.6,1-1,1.4L4,17.8C3.8,18,3.5,18,3.2,17.9C3,17.8,2.8,17.7,2.8,17.4z
	 M8.7,16.1L6.4,17l0.8-0.7c0.6-0.5,1-1,1.3-1.7l0.2-0.4V16.1z M3.8,21c-0.2-0.5-0.2-1,0-1.5s0.6-0.8,1.1-1l4.3-1.6h5.5l4.3,1.6
	c0.5,0.2,0.9,0.5,1.1,1s0.2,1,0,1.5c-0.3,0.7-1,1.2-1.7,1.2h-0.1c-0.2,0-0.4,0-0.6-0.1l-3.9-1.4h0.6c0.2,0,0.3-0.1,0.4-0.2
	c0.1-0.1,0.1-0.3,0-0.4l-0.4-0.6l3.2,0.9h0.1c0.2,0,0.4-0.1,0.4-0.3c0.1-0.2-0.1-0.5-0.3-0.5L13,18c-0.6-0.3-1.3-0.3-2-0.1l-3.3,1
	c-0.2,0.1-0.4,0.3-0.3,0.5s0.3,0.4,0.5,0.3l3.3-1c0.5-0.1,1-0.1,1.4,0.1l0,0c0.3,0.1,0.6,0.4,0.8,0.6l0.2,0.3h-1.2
	c-0.1,0-0.1,0-0.1,0L6.2,22c-0.2,0.1-0.4,0.1-0.6,0.1H5.5C4.7,22.1,4.1,21.7,3.8,21z M12,20.8l3.6,1.4H8.3L12,20.8z"/>
</svg>
