<?xml version="1.0" encoding="utf-8"?>
<!-- Generator: Adobe Illustrator 24.0.3, SVG Export Plug-In . SVG Version: 6.00 Build 0)  -->
<svg version="1.1" id="Capa_1" xmlns="http://www.w3.org/2000/svg" xmlns:xlink="http://www.w3.org/1999/xlink" x="0px" y="0px"
	 viewBox="0 0 24 24" style="enable-background:new 0 0 24 24;" xml:space="preserve">
<style type="text/css">
	.st0{fill:#FFFFFF;}
</style>
<g>
	<g>
		<path class="st0" d="M21.3,2.7c-1.3-1.3-3-1.9-5-1.7c-1.9,0.2-3.8,1.1-5.4,2.6c-0.1,0.1-0.3,0.3-0.4,0.4c-0.1-0.3-0.3-0.6-0.6-0.9
			c-1.2-1.2-3-1.2-4.2,0s-1.2,3,0,4.2c0.6,0.6,1.3,0.9,2,0.9c0.3,0,0.5,0,0.8,0c-0.2,1-0.2,1.9-0.1,2.8l0,0c0,0.9-0.2,3.3-1,4.1
			l-1.5,1.5c-0.1,0-0.1,0-0.2,0c-0.2,0-0.4,0.1-0.6,0.2l-2.4,2.4c-0.1,0.1-0.1,0.3,0,0.5c0.1,0.1,0.3,0.1,0.5,0l2.4-2.4h0.1h0.1
			l0.9,0.9c0,0,0,0.1,0,0.2l-3.9,3.9c0,0-0.1,0-0.2,0l-0.9-0.9c0,0,0-0.1,0-0.2l1.9-1.9c0.1-0.1,0.1-0.3,0-0.5
			c-0.1-0.1-0.3-0.1-0.5,0l-1.9,1.9c-0.3,0.3-0.3,0.8,0,1.1l0.9,0.9C2.3,22.9,2.5,23,2.7,23s0.4-0.1,0.6-0.2l3.9-3.9
			c0.2-0.2,0.3-0.5,0.2-0.8l1.5-1.5c0.8-0.8,3.2-1,4.1-1l0,0c0.2,0,0.4,0.1,0.7,0.1c0.2,0,0.4,0,0.6,0c1.1,0,2.2-0.2,3.3-0.7
			c0.4-0.2,1.3-0.7,1.8-1.1c0.2-0.1,0.2-0.3,0.2-0.4l0,0c-0.1-0.2-0.3-0.2-0.4-0.1c-0.7,0.5-1.8,1.1-1.8,1.1
			c-1.2,0.5-2.4,0.7-3.5,0.6c-1.3-0.1-2.5-0.6-3.3-1.5c-1.5-1.4-2-3.5-1.4-5.6C9.5,7.9,9.8,7.7,10,7.4c0.7-0.7,1-1.7,0.8-2.6
			c0.2-0.2,0.4-0.5,0.6-0.7c1.4-1.4,3.2-2.3,5-2.4c1.8-0.2,3.4,0.3,4.5,1.5c2.3,2.3,1.9,6.6-1,9.4c-0.4,0.4-0.7,0.7-1.1,1
			c-0.1,0.1-0.2,0.3-0.1,0.4c0.1,0.2,0.3,0.2,0.5,0.1c0.4-0.3,0.8-0.7,1.2-1c1.5-1.5,2.4-3.4,2.6-5.4C23.2,5.7,22.6,4,21.3,2.7z
			 M6.2,6.9C5.9,6.5,5.6,6.1,5.6,5.6c0.5,0.1,1,0.3,1.3,0.7c0.4,0.4,0.6,0.8,0.7,1.3C7.1,7.5,6.6,7.3,6.2,6.9z M10.8,14.7
			c0.2,0.1,0.4,0.3,0.6,0.4c-0.1,0-0.2,0-0.2,0c-0.4,0.1-0.7,0.1-1,0.2L10.8,14.7z M10,14c0.1,0.1,0.2,0.2,0.3,0.3L7,17.6L6.4,17
			l3.3-3.3C9.8,13.9,9.9,14,10,14z M9.3,13.2l-0.6,0.6c0.1-0.3,0.1-0.6,0.2-1c0-0.1,0-0.2,0-0.2C9,12.8,9.1,13,9.3,13.2z M9.5,6.9
			C9.1,7.3,8.7,7.5,8.2,7.6c0-0.7-0.3-1.3-0.8-1.8S6.3,5,5.6,4.9C5.7,4.5,5.9,4,6.2,3.7C6.6,3.3,7,3.1,7.5,3
			c0.1,0.7,0.4,1.3,0.9,1.8s1.1,0.8,1.8,0.9C10,6.1,9.8,6.6,9.5,6.9z M8.8,4.4C8.4,4,8.2,3.5,8.1,3c0.5,0.1,1,0.3,1.3,0.7
			C9.9,4,10.1,4.5,10.1,5C9.6,5,9.2,4.7,8.8,4.4z"/>
	</g>
</g>
<g>
	<g>
		<path class="st0" d="M20.2,3.8c-0.9-0.9-2.2-1.3-3.7-1.2c-1.6,0.2-3.1,0.9-4.4,2.2c-1.2,1.2-2,2.8-2.2,4.4
			c-0.1,1.5,0.3,2.8,1.2,3.7c0.8,0.8,1.9,1.2,3.2,1.2c0.2,0,0.4,0,0.6,0c1.6-0.2,3.1-0.9,4.4-2.2c1.2-1.2,2-2.8,2.2-4.4
			C21.5,6.1,21.1,4.7,20.2,3.8z M19.9,4.5c0.3,0.4,0.5,0.8,0.6,1.3l-1-1L19.9,4.5z M12.6,8.4l1.3-1.3l1.3,1.3l-1.3,1.3L12.6,8.4z
			 M13.4,10.1l-1.3,1.3l-1.3-1.3l1.3-1.3L13.4,10.1z M14.3,6.6l1.3-1.3l1.3,1.3l-1.3,1.3L14.3,6.6z M15.6,8.8l1.3,1.3l-1.3,1.3
			l-1.3-1.3L15.6,8.8z M16.1,8.4l1.3-1.3l1.3,1.3l-1.3,1.3L16.1,8.4z M17.9,6.6l1.3-1.3l1.3,1.3l-1.3,1.3L17.9,6.6z M19.5,4.1
			l-0.3,0.3l-1-1C18.7,3.6,19.1,3.8,19.5,4.1z M17.4,3.5l1.3,1.3l-1.3,1.3l-1.3-1.3L17.4,3.5z M16.5,3.3c0.1,0,0.1,0,0.2,0l-1.1,1.1
			l-0.7-0.7C15.4,3.5,16,3.3,16.5,3.3z M14.3,4l0.9,0.9l-1.3,1.3L12.8,5C13.2,4.6,13.8,4.2,14.3,4z M12.3,5.5l1.1,1.1l-1.3,1.3
			L11.2,7C11.5,6.5,11.9,6,12.3,5.5z M10.5,9.3c0.1-0.5,0.2-1.1,0.4-1.6l0.7,0.7l-1.1,1.1C10.5,9.4,10.5,9.3,10.5,9.3z M11.3,12.2
			c-0.3-0.4-0.5-0.8-0.6-1.3l1,1L11.3,12.2z M11.8,12.7l0.3-0.3l1,1C12.6,13.2,12.2,13,11.8,12.7z M13.9,13.2l-1.3-1.3l1.3-1.3
			l1.3,1.3L13.9,13.2z M14.7,13.5c-0.1,0-0.1,0-0.2,0l1.1-1.1l0.7,0.7C15.8,13.3,15.3,13.4,14.7,13.5z M17,12.8l-0.9-0.9l1.3-1.3
			l1.1,1.1C18,12.1,17.5,12.5,17,12.8z M19,11.2l-1.1-1.1l1.3-1.3L20,9.7C19.8,10.2,19.4,10.8,19,11.2z M20.7,7.5
			c-0.1,0.5-0.2,1.1-0.4,1.6l-0.7-0.7l1.1-1.1C20.7,7.3,20.7,7.4,20.7,7.5z"/>
	</g>
</g>
</svg>
