<?xml version="1.0" encoding="UTF-8"?>
<svg width="16px" height="11px" viewBox="0 0 16 11" version="1.1" xmlns="http://www.w3.org/2000/svg" xmlns:xlink="http://www.w3.org/1999/xlink">
    <title>Shape</title>
    <g id="Coaching" stroke="none" stroke-width="1" fill="none" fill-rule="evenodd">
        <g id="Course--Page---3" transform="translate(-15.000000, -1028.000000)" fill="#757575" fill-rule="nonzero">
            <g id="Includes-Copy" transform="translate(14.000000, 988.000000)">
                <g id="videocam_black_24dp" transform="translate(0.000000, 36.000000)">
                    <path d="M11.3333333,5.72222222 L11.3333333,12.6111111 L2.72222222,12.6111111 L2.72222222,5.72222222 L11.3333333,5.72222222 M12.1944444,4 L1.86111111,4 C1.3875,4 1,4.3875 1,4.86111111 L1,13.4722222 C1,13.9458333 1.3875,14.3333333 1.86111111,14.3333333 L12.1944444,14.3333333 C12.6680556,14.3333333 13.0555556,13.9458333 13.0555556,13.4722222 L13.0555556,10.4583333 L16.5,13.9027778 L16.5,4.43055556 L13.0555556,7.875 L13.0555556,4.86111111 C13.0555556,4.3875 12.6680556,4 12.1944444,4 Z" id="Shape"></path>
                </g>
            </g>
        </g>
    </g>
</svg>