<?xml version="1.0" encoding="UTF-8"?>
<svg width="34px" height="34px" viewBox="0 0 34 34" version="1.1" xmlns="http://www.w3.org/2000/svg" xmlns:xlink="http://www.w3.org/1999/xlink">
    <title>Shape</title>
    <g id="Coaching" stroke="none" stroke-width="1" fill="none" fill-rule="evenodd">
        <g id="Home" transform="translate(-174.000000, -87.000000)" fill="#424242" fill-rule="nonzero">
            <g id="Card-1-Copy-4" transform="translate(163.000000, 80.000000)">
                <g id="008-padmasana" transform="translate(8.000000, 4.000000)">
                    <path d="M36.335897,35.671875 L33.0537753,35.671875 C33.4042453,35.3001557 33.6945309,34.8586578 33.9010255,34.3562012 C34.3451444,33.2768402 34.3316547,32.0932007 33.8634102,31.0239563 C33.7949246,30.8675385 33.7171,30.7173462 33.6322712,30.5723419 C33.813862,30.5318756 33.9931178,30.4703979 34.1669261,30.387909 C35.0437496,29.9713135 35.5885217,29.1093292 35.5885217,28.1386566 C35.5885217,27.9454041 35.5044711,27.7620087 35.3584203,27.6359405 L30.2624672,23.2391205 L28.3466856,17.5427094 C27.5482054,15.1689453 25.4567997,13.5043793 23.0128487,13.2234497 C23.7355796,12.4719696 24.1812549,11.4520111 24.1812549,10.3293305 L24.1812549,9.45904541 C24.1812549,8.16957091 23.5941983,7.01524355 22.673793,6.24768066 C22.673793,6.24430849 22.6743118,6.24093631 22.6743118,6.23756407 L22.6743118,5.67311095 C22.6743118,4.19920351 21.4750351,3 20.0010377,3 C18.5270403,3 17.328023,4.19920351 17.328023,5.67311095 L17.328023,6.23756407 C17.328023,6.24093631 17.3282823,6.24430849 17.3285417,6.24768066 C16.4078771,7.01524355 15.8208204,8.16957091 15.8208204,9.45904541 L15.8208204,10.3293305 C15.8208204,11.4520111 16.2664958,12.4719696 16.9894861,13.2234497 C14.5452756,13.5041199 12.4538699,15.1686859 11.6556492,17.5427094 L9.73986753,23.2391205 L4.64391441,27.6359405 C4.49760421,27.7620087 4.41355367,27.9454041 4.41355367,28.1386566 C4.41355367,29.1093292 4.95832569,29.9713135 5.83540862,30.387909 C6.00921687,30.4706573 6.18847282,30.5318756 6.3698041,30.5726014 C6.2849753,30.7173462 6.20715072,30.8675385 6.1386651,31.0239563 C5.67042059,32.0934601 5.6571904,33.2768402 6.10104984,34.3564606 C6.30754444,34.8586578 6.59783005,35.3001557 6.94830007,35.671875 L3.66410303,35.671875 C3.29728984,35.671875 3,35.9694061 3,36.3359375 C3,36.7027283 3.29728984,37 3.66410303,37 L36.335897,37 C36.7027102,37 37,36.7027283 37,36.3359375 C37,35.9694061 36.7027102,35.671875 36.335897,35.671875 Z M25.0674174,23.3527374 L25.3335775,23.9877472 C25.7649851,25.0173035 26.4503601,25.934021 27.3157694,26.639328 L28.5933895,27.6802979 L25.0674174,26.372406 L25.0674174,23.3527374 Z M20.0010377,4.328125 C20.6832998,4.328125 21.2470091,4.83888243 21.3333944,5.49775694 C20.9146981,5.35664366 20.4669474,5.27882384 20.0010377,5.27882384 C19.5353873,5.27882384 19.0876366,5.35664366 18.6689403,5.49775694 C18.7550662,4.83888243 19.319035,4.328125 20.0010377,4.328125 Z M17.1490265,9.45904541 C17.1490265,7.8865662 18.4284624,6.60720822 20.0010377,6.60720822 C21.5736129,6.60720822 22.8530489,7.8865662 22.8530489,9.45904541 L22.8530489,10.3293305 C22.8530489,11.9018097 21.5736129,13.1811676 20.0010377,13.1811676 C18.4284624,13.1811676 17.1490265,11.9018097 17.1490265,10.3293305 L17.1490265,9.45904541 Z M5.77340843,28.4156952 L10.7451016,24.126007 C10.8353781,24.0481873 10.9028261,23.9475402 10.9409602,23.8347016 L12.9145914,17.9660492 C13.6098242,15.8983765 15.5427273,14.5090332 17.7244094,14.5090332 L22.2779253,14.5090332 C24.4593481,14.5090332 26.3922511,15.8983765 27.0877434,17.9660492 L29.0613746,23.8347016 C29.0992492,23.9475402 29.1669566,24.0481873 29.2569737,24.126007 L34.2289264,28.4156952 C34.1500641,28.7531738 33.9259294,29.0320282 33.5967314,29.1884461 C33.1814076,29.3855896 32.7204267,29.3300781 32.3639901,29.0395508 L28.1549777,25.6097717 C27.4579289,25.0419464 26.9058933,24.3034363 26.5585363,23.4743957 L25.0674174,19.9167328 L25.0674174,18.1515197 C25.0674174,17.7849884 24.7698682,17.4874572 24.4033144,17.4874572 C24.0365013,17.4874572 23.7392113,17.7849884 23.7392113,18.1515197 L23.7392113,26.1700744 L16.2602698,26.1700744 L16.2602698,20.0588837 C16.2602698,20.0568085 16.2602698,20.0544738 16.2602698,20.0521393 L16.2602698,18.1515197 C16.2602698,17.7849884 15.9629799,17.4874572 15.5961668,17.4874572 C15.2293536,17.4874572 14.9320637,17.7849884 14.9320637,18.1515197 L14.9320637,19.9237365 L13.443539,23.4743957 C13.096182,24.3034363 12.5441464,25.0419464 11.847357,25.6097717 L7.63808523,29.0395508 C7.28164864,29.3300781 6.82066777,29.385849 6.40534397,29.1884461 C6.07640544,29.0320282 5.85227066,28.7531738 5.77340843,28.4156952 Z M14.9320637,26.3734436 L11.4089453,27.6802979 L12.6863059,26.639328 C13.5517152,25.934021 14.2370903,25.0173035 14.6684978,23.9877472 L14.9320637,23.3594818 L14.9320637,26.3734436 Z M7.32938105,33.8514099 C7.02378992,33.1079712 7.0328694,32.2929383 7.35532257,31.5567627 C7.67777574,30.8205871 8.27053957,30.2610626 9.02414091,29.9814301 L15.7180919,27.4981994 L24.2839834,27.4981994 L30.9781939,29.9814301 C31.7317952,30.2610626 32.3242996,30.8203277 32.6467527,31.5567627 C32.9692059,32.2929383 32.9782854,33.1079712 32.6726943,33.8514099 C32.2197552,34.9528198 31.1857261,35.6321869 30.0689434,35.671875 L29.8780138,35.671875 C29.5636025,35.6625366 29.2447812,35.6028748 28.9327047,35.4866639 L22.9591497,33.2641297 L23.845831,33.2641297 C24.0946103,33.2641297 24.3223768,33.125351 24.4362601,32.9040832 C24.5501434,32.683075 24.5309467,32.4169312 24.3864524,32.2145996 L23.7306507,31.2952881 L28.6665446,32.7165375 C28.728026,32.7341767 28.7897668,32.7427368 28.8507294,32.7427368 C29.1391991,32.7427368 29.4048404,32.5531158 29.4886315,32.2623291 C29.5900629,31.9098053 29.3866813,31.5417176 29.034136,31.4402924 L21.5474119,29.2846832 C20.5886132,28.857193 19.4853201,28.7752228 18.4305377,29.1049194 L13.2842581,30.715271 C12.9343069,30.824997 12.7392267,31.1974945 12.8486999,31.5474243 C12.9584325,31.8973541 13.3309528,32.0924225 13.680904,31.9829559 L18.8271837,30.3726044 C19.5597723,30.1432953 20.3258256,30.198288 20.993301,30.4919281 C21.0171672,30.5046387 21.0425899,30.5157929 21.0685314,30.5259094 C21.5347006,30.7461395 21.9487273,31.0849151 22.2639169,31.526413 L22.5560184,31.9360047 L20.7320698,31.9360047 C20.6529482,31.9360047 20.5746048,31.9502716 20.500412,31.977768 L11.0693707,35.4866639 C10.7580724,35.6026153 10.4397699,35.6622772 10.1258774,35.671875 L9.93183481,35.671875 C8.81557099,35.6316681 7.7823201,34.952301 7.32938105,33.8514099 L7.32938105,33.8514099 Z M20.0010377,33.5808563 L25.6215284,35.671875 L14.3805469,35.671875 L20.0010377,33.5808563 Z" id="Shape"></path>
                </g>
            </g>
        </g>
    </g>
</svg>