<?xml version="1.0" encoding="UTF-8"?>
<svg width="21px" height="21px" viewBox="0 0 21 21" version="1.1" xmlns="http://www.w3.org/2000/svg" xmlns:xlink="http://www.w3.org/1999/xlink">
    <title>Shape</title>
    <g id="Coaching" stroke="none" stroke-width="1" fill="none" fill-rule="evenodd">
        <g id="Home" transform="translate(-30.000000, -931.000000)" fill="#FFFFFF" fill-rule="nonzero">
            <g id="Card-1-Copy-10" transform="translate(16.000000, 827.000000)">
                <g id="Sports" transform="translate(8.000000, 100.000000)">
                    <g id="008-padmasana" transform="translate(5.000000, 3.000000)">
                        <path d="M20.7633697,20.3839286 L18.8878716,20.3839286 C19.0881402,20.1715175 19.2540176,19.919233 19.3720146,19.632115 C19.6257968,19.0153373 19.6180884,18.3389718 19.3505201,17.727975 C19.3113855,17.6385934 19.2669143,17.5527693 19.2184407,17.4699097 C19.3222068,17.4467861 19.4246388,17.411656 19.5239578,17.3645194 C20.0249998,17.1264648 20.3362981,16.6339024 20.3362981,16.0792324 C20.3362981,15.9688023 20.2882692,15.864005 20.2048116,15.791966 L17.2928384,13.2794974 L16.1981061,10.0244054 C15.7418317,8.66796875 14.5467427,7.71678817 13.1501992,7.55625698 C13.5631883,7.12683978 13.81786,6.54400636 13.81786,5.90247455 L13.81786,5.40516881 C13.81786,4.66832623 13.482399,4.0087106 12.9564531,3.57010324 C12.9564531,3.56817628 12.9567496,3.56624932 12.9567496,3.56432233 L12.9567496,3.24177768 C12.9567496,2.39954486 12.2714486,1.71428571 11.4291644,1.71428571 C10.5868801,1.71428571 9.9017274,2.39954486 9.9017274,3.24177768 L9.9017274,3.56432233 C9.9017274,3.56624932 9.90187563,3.56817628 9.90202386,3.57010324 C9.37592974,4.0087106 9.0404688,4.66832623 9.0404688,5.40516881 L9.0404688,5.90247455 C9.0404688,6.54400636 9.29514043,7.12683978 9.70827775,7.55625698 C8.31158604,7.71663995 7.11649708,8.66782053 6.66037096,10.0244054 L5.56563859,13.2794974 L2.65366538,15.791966 C2.57005955,15.864005 2.52203067,15.9688023 2.52203067,16.0792324 C2.52203067,16.6339024 2.83332896,17.1264648 3.33451921,17.3645194 C3.43383821,17.4118042 3.53627019,17.4467861 3.63988806,17.4700579 C3.59141445,17.5527693 3.54694327,17.6385934 3.50780863,17.727975 C3.24024034,18.33912 3.23268023,19.0153373 3.48631419,19.6322632 C3.60431111,19.919233 3.7701886,20.1715175 3.97045718,20.3839286 L2.09377316,20.3839286 C1.88416562,20.3839286 1.71428571,20.5539464 1.71428571,20.7633929 C1.71428571,20.9729876 1.88416562,21.1428571 2.09377316,21.1428571 L20.7633697,21.1428571 C20.9729772,21.1428571 21.1428571,20.9729876 21.1428571,20.7633929 C21.1428571,20.5539464 20.9729772,20.3839286 20.7633697,20.3839286 Z M14.3242385,13.3444214 L14.47633,13.7072841 C14.7228486,14.295602 15.1144915,14.8194406 15.6090111,15.2224732 L16.3390797,15.8173131 L14.3242385,15.0699463 L14.3242385,13.3444214 Z M11.4291644,2.47321429 C11.8190285,2.47321429 12.1411481,2.76507567 12.1905111,3.1415754 C11.9512561,3.06093923 11.6953985,3.01647076 11.4291644,3.01647076 C11.1630784,3.01647076 10.9072209,3.06093923 10.6679659,3.1415754 C10.7171807,2.76507567 11.0394486,2.47321429 11.4291644,2.47321429 Z M9.79944369,5.40516881 C9.79944369,4.50660925 10.5305499,3.77554755 11.4291644,3.77554755 C12.3277788,3.77554755 13.0588851,4.50660925 13.0588851,5.40516881 L13.0588851,5.90247455 C13.0588851,6.8010341 12.3277788,7.53209576 11.4291644,7.53209576 C10.5305499,7.53209576 9.79944369,6.8010341 9.79944369,5.90247455 L9.79944369,5.40516881 Z M3.29909053,16.2375401 L6.14005807,13.7862897 C6.19164465,13.7418213 6.23018634,13.6843087 6.25197723,13.6198295 L7.37976649,10.2663138 C7.77704241,9.08478655 8.88155843,8.29087612 10.128234,8.29087612 L12.730243,8.29087612 C13.9767703,8.29087612 15.0812863,9.08478655 15.4787105,10.2663138 L16.6064998,13.6198295 C16.6281424,13.6843087 16.6668323,13.7418213 16.7182707,13.7862897 L19.5593865,16.2375401 C19.5143224,16.430385 19.3862453,16.5897304 19.1981322,16.679112 C18.9608043,16.7917655 18.6973867,16.7600446 18.4937086,16.594029 L16.0885587,14.6341553 C15.6902451,14.3096837 15.3747962,13.8876779 15.1763065,13.4139404 L14.3242385,11.3809902 L14.3242385,10.372297 C14.3242385,10.1628505 14.1542104,9.99283271 13.9447511,9.99283271 C13.7351436,9.99283271 13.5652636,10.1628505 13.5652636,10.372297 L13.5652636,14.9543282 L9.29158274,14.9543282 L9.29158274,11.4622192 C9.29158274,11.4610334 9.29158274,11.4596993 9.29158274,11.4583653 L9.29158274,10.372297 C9.29158274,10.1628505 9.12170279,9.99283271 8.91209529,9.99283271 C8.70248779,9.99283271 8.53260784,10.1628505 8.53260784,10.372297 L8.53260784,11.3849923 L7.68202229,13.4139404 C7.48353259,13.8876779 7.16808365,14.3096837 6.76991829,14.6341553 L4.36462013,16.594029 C4.16094208,16.7600446 3.89752444,16.7919137 3.66019655,16.679112 C3.47223168,16.5897304 3.34415466,16.430385 3.29909053,16.2375401 Z M8.53260784,15.0705392 L6.51939729,15.8173131 L7.24931768,15.2224732 C7.74383726,14.8194406 8.13548015,14.295602 8.38199876,13.7072841 L8.53260784,13.3482753 L8.53260784,15.0705392 Z M4.18821774,19.3436628 C4.01359424,18.9188407 4.01878252,18.4531076 4.20304147,18.0324358 C4.38730042,17.6117641 4.72602261,17.2920358 5.15665195,17.1322458 L8.9817668,15.7132568 L13.876562,15.7132568 L17.7018251,17.1322458 C18.1324544,17.2920358 18.4710283,17.6116159 18.6552873,18.0324358 C18.8395462,18.4531076 18.8447345,18.9188407 18.670111,19.3436628 C18.4112887,19.9730399 17.8204149,20.3612497 17.1822534,20.3839286 L17.0731507,20.3839286 C16.8934872,20.3785924 16.7113035,20.3444999 16.5329741,20.2780936 L13.1195141,19.0080741 L13.6261892,19.0080741 C13.7683487,19.0080741 13.898501,18.928772 13.9635772,18.8023333 C14.0286534,18.6760428 14.0176839,18.5239607 13.9351157,18.4083426 L13.5603718,17.8830218 L16.3808826,18.6951643 C16.4160148,18.7052438 16.4512953,18.7101353 16.4861311,18.7101353 C16.6509709,18.7101353 16.8027659,18.6017805 16.8506466,18.4356166 C16.9086074,18.2341744 16.7923893,18.0238386 16.5909348,17.9658814 L12.3128068,16.7341047 C11.7649218,16.4898246 11.1344687,16.4429844 10.5317358,16.6313825 L7.59100461,17.5515834 C7.39103253,17.614284 7.27955809,17.8271397 7.3421142,18.0270996 C7.40481858,18.2270595 7.61768732,18.3385271 7.81765941,18.2759748 L10.7583907,17.3557739 C11.1770128,17.2247402 11.6147575,17.2561646 11.996172,17.4239589 C12.0098098,17.4312221 12.0243371,17.4375959 12.0391608,17.4433768 C12.3055432,17.5692226 12.5421299,17.7628087 12.7222382,18.0150931 L12.8891534,18.2491455 L11.846897,18.2491455 C11.8016847,18.2491455 11.756917,18.2572981 11.7145211,18.2730103 L6.32535466,20.2780936 C6.14746992,20.3443516 5.9655828,20.3784441 5.78621567,20.3839286 L5.67533418,20.3839286 C5.03746913,20.3609532 4.44704006,19.9727434 4.18821774,19.3436628 L4.18821774,19.3436628 Z M11.4291644,19.1890608 L14.6408734,20.3839286 L8.2174554,20.3839286 L11.4291644,19.1890608 Z" id="Shape"></path>
                    </g>
                </g>
            </g>
        </g>
    </g>
</svg>