<?xml version="1.0" encoding="UTF-8"?>
<svg width="23px" height="32px" viewBox="0 0 23 32" version="1.1" xmlns="http://www.w3.org/2000/svg" xmlns:xlink="http://www.w3.org/1999/xlink">
    <title>Shape</title>
    <g id="Coaching" stroke="none" stroke-width="1" fill="none" fill-rule="evenodd">
        <g id="Home" transform="translate(-323.000000, -92.000000)" fill="#424242" fill-rule="nonzero">
            <g id="Card-1-Copy-6" transform="translate(307.000000, 80.000000)">
                <g id="002-dancing" transform="translate(16.000000, 12.000000)">
                    <path d="M22.7070327,29.1612898 L16.4570774,19.6058454 C16.2659181,19.3136813 15.864555,19.2257509 15.560819,19.4096112 C15.256953,19.5933464 15.1655657,19.9791905 15.3566601,20.2713547 L19.9762037,27.3346861 L18.6610327,28.2025541 C15.3564007,24.1465039 10.1150211,17.7158313 10.1150211,17.7158313 C10.0074493,17.5838419 9.84911402,17.4989112 9.67576416,17.4802252 C9.5025443,17.4614767 9.32854446,17.5106603 9.19321847,17.6165268 L5.10347476,20.8155206 C4.88872113,20.9835072 4.80818852,21.2636722 4.90276071,21.5137772 L6.83469842,26.6243055 L5.18101746,27.3472476 L2.99370233,23.1475214 C2.37927555,21.9678034 2.55899522,20.5579163 3.45154875,19.5557465 L7.51145835,14.997424 L11.6101068,14.2423595 C12.8003515,14.7269457 14.0724938,15.9457856 13.9530273,17.9101908 C13.9451625,18.0401804 13.9796765,18.1692325 14.0517594,18.2794112 L15.3627055,20.2831258 C15.5537348,20.5752274 15.9550979,20.6632203 16.2589639,20.4793601 C16.5628299,20.2956248 16.6542172,19.9097807 16.4631229,19.6176166 L15.2593586,17.7778264 C15.3088221,15.5305063 13.8985589,13.9111985 12.3280105,13.1842567 L12.3569996,10.7006431 C12.7234588,10.4170408 12.9929408,10.0258846 13.1164371,9.58466998 C13.2414934,9.13795575 13.2102293,8.66343125 13.0356445,8.23727787 C13.2955718,8.31552161 13.5718786,8.35776823 13.8583251,8.35776823 C15.37928,8.35776823 16.6167133,7.1679885 16.6167133,5.70560561 C16.6167133,4.97691396 16.3094024,4.31602938 15.8129472,3.8361928 L20.4982682,3.8361928 C21.5982956,3.8361928 22.493189,2.97569921 22.493189,1.9180964 C22.493189,0.860493593 21.5981656,0 20.4981382,0 L14.9525677,0 C13.0702235,0 11.2429977,0.748877531 9.93952634,2.05458547 L6.80434432,5.19502149 C6.40142127,5.46362498 6.06440626,5.82703338 5.82956823,6.26493582 C5.63216908,6.63290635 5.51991741,7.03731147 5.49606312,7.44890351 L2.63361301,6.57034886 C1.58805401,6.24949955 0.483346775,6.76295843 0.118837584,7.73938024 C-0.0658869373,8.23452809 -0.0344278703,8.76654799 0.207429957,9.23744778 C0.446687862,9.70334797 0.860010604,10.0482579 1.3725854,10.2102449 C1.3725854,10.2102449 4.65758798,11.3967749 4.66798767,11.4000246 C5.09729994,11.5317641 5.5472166,11.638818 6.005648,11.7209989 L6.3968714,14.3274152 L2.46416303,18.7429366 C1.23056461,20.1281382 0.982076984,22.0767321 1.8314068,23.7073516 L5.5945352,30.932773 C5.94565478,31.6070315 6.64236912,32 7.37892728,32 C7.62890987,32 7.88350731,31.9546911 8.13056499,31.8598237 C9.14251998,31.4712923 9.64359012,30.395691 9.27134616,29.4111448 L6.2824748,21.5047154 L9.50013937,18.987917 C11.1509604,21.0134423 17.3471617,28.6158335 19.5149774,31.2781203 C20.1516335,32.0600577 21.314969,32.224232 22.1633888,31.6520279 L22.1888681,31.6349042 C23.0200634,31.0741991 23.2476867,29.9876611 22.7070327,29.1612898 Z M6.98490896,6.83782744 C7.28747499,6.27362262 7.88448229,5.92396312 8.54427772,5.92396312 L8.55194749,5.92396312 L11.1107916,5.93439978 C11.1424457,6.28862142 11.2467676,6.62303214 11.4093928,6.92400804 C10.9088426,6.82514096 10.3710485,6.88982328 9.88869785,7.14255304 C9.62181576,7.28241684 9.33874916,7.4014698 9.0474928,7.4963997 C8.31340457,7.73581803 7.5468823,7.81631158 6.7916047,7.73831783 C6.77698013,7.44290399 6.84386315,7.10080638 6.98490896,6.83782744 Z M13.8582601,7.10793081 C13.054039,7.10793081 12.3998334,6.47885619 12.3998334,5.7056681 C12.3998334,4.93248002 13.054039,4.30340539 13.8582601,4.30340539 C14.6624163,4.30340539 15.3166869,4.93248002 15.3166869,5.7056681 C15.3166869,6.47885619 14.6624163,7.10793081 13.8582601,7.10793081 Z M10.8773185,2.92014116 C11.9369821,1.85866366 13.4223181,1.24989991 14.9525677,1.24989991 L20.4981382,1.24989991 C20.8813668,1.24989991 21.1930976,1.54962591 21.1930976,1.9180964 C21.1930976,2.2865669 20.8813019,2.58629289 20.4981382,2.58629289 L14.5270253,2.58629289 C13.7751276,2.58629289 13.0511791,2.87695712 12.5217048,3.38660381 C11.9818308,3.67545568 11.5526485,4.13316902 11.3124156,4.68531231 L9.12399553,4.67637552 L10.8773185,2.92014116 Z M1.81587226,9.03521398 C1.80566756,9.03152677 1.79533287,9.02802705 1.78486818,9.02483981 C1.60352355,8.96915677 1.45727789,8.84816646 1.37297539,8.6839921 C1.28873789,8.51994274 1.27788321,8.3343951 1.3423613,8.16147144 C1.4670926,7.8273732 1.86884569,7.64788757 2.23822973,7.76106601 L5.3481275,8.71555207 C6.69865745,9.13001889 8.12218024,9.11789486 9.46484542,8.68017991 C9.82655969,8.56225185 10.1784593,8.41420121 10.5107294,8.24009015 C10.9484264,8.01054603 11.4949952,8.14990987 11.7549875,8.55687728 C11.8907685,8.76942276 11.9284024,9.01909027 11.8610644,9.25994598 C11.7936614,9.50080169 11.6307762,9.69859835 11.402438,9.81690138 C10.2318227,10.4234778 8.92620639,10.7113298 7.62682993,10.6498972 C6.75943065,10.608713 5.87877177,10.4580375 5.0786455,10.2139321 L1.81587226,9.03521398 Z M7.56274183,11.8982972 C7.69923778,11.9047967 7.83553874,11.9079839 7.97190469,11.9079839 C9.02006361,11.9079839 10.0635427,11.7174367 11.0493684,11.3482163 L11.029219,13.0768903 L7.61695022,13.705465 L7.34363333,11.8844233 C7.41669116,11.8892979 7.48981399,11.89486 7.56274183,11.8982972 Z M6.75683073,30.3730678 L5.76346519,28.465783 L7.28013021,27.8027736 L8.04957739,29.8381106 C8.18048351,30.1842079 8.00433873,30.5623651 7.64853928,30.6989792 C7.30541446,30.8307186 6.92218582,30.6905424 6.75683073,30.3730678 Z M21.416951,30.6286098 C21.1347293,30.8190946 20.7487708,30.7658488 20.538502,30.507557 C20.2465307,30.1489607 19.8813715,29.7006841 19.4642139,29.1886001 L20.6689531,28.3936013 L21.6066153,29.826799 C21.7782103,30.089028 21.7059974,30.4337504 21.4424302,30.6114862 L21.416951,30.6286098 Z" id="Shape"></path>
                </g>
            </g>
        </g>
    </g>
</svg>